<svg width="16" height="16" viewBox="0 0 16 16" fill="none" xmlns="http://www.w3.org/2000/svg">
<path d="M8.9458 8.16747V8.82482H9.61538V11.4629H10.285V8.82482H13.6417V12.7776H14.3157V5.52942H13.6417V8.16747H8.9458Z" fill="#000001"/>
<path d="M13.6417 12.7777H12.9722V13.4394H13.6417V12.7777Z" fill="#000001"/>
<path d="M13.6417 4.87219H12.9722V5.52954H13.6417V4.87219Z" fill="#000001"/>
<path d="M12.9723 6.1911H12.3027V6.84845H12.9723V6.1911Z" fill="#000001"/>
<path d="M12.9721 13.4394H2.23242V14.0967H12.9721V13.4394Z" fill="#000001"/>
<path d="M12.3025 6.84851H10.2849V7.50586H12.3025V6.84851Z" fill="#000001"/>
<path d="M12.3025 5.52942H10.2849V6.19109H12.3025V5.52942Z" fill="#000001"/>
<path d="M10.2851 6.1911H9.61548V6.84845H10.2851V6.1911Z" fill="#000001"/>
<path d="M9.61538 11.4631H8.9458V12.1204H9.61538V11.4631Z" fill="#000001"/>
<path d="M12.9722 4.21051H8.27197V4.87218H12.9722V4.21051Z" fill="#000001"/>
<path d="M6.93277 11.4631H8.27193V10.8014H8.94592V9.48236H8.27193V10.144H7.60235V9.48236H8.27193V8.82501H6.93277V9.48236H6.25879V10.8014H6.93277V11.4631Z" fill="#000001"/>
<path d="M8.94592 7.50574H6.25879V8.16741H8.94592V7.50574Z" fill="#000001"/>
<path d="M8.94592 12.1203H6.25879V12.7776H8.94592V12.1203Z" fill="#000001"/>
<path d="M8.27188 4.87219H7.60229V5.52954H8.27188V4.87219Z" fill="#000001"/>
<path d="M6.25894 11.4631H5.58936V12.1204H6.25894V11.4631Z" fill="#000001"/>
<path d="M6.25851 4.21051H4.24536V4.87218H6.25851V4.21051Z" fill="#000001"/>
<path d="M4.24566 6.84851H2.9021V7.50586H4.24566V6.84851Z" fill="#000001"/>
<path d="M7.60228 6.19122V5.52954H6.9327V4.87219H6.25871V5.52954H4.24557V4.87219H3.57599V5.52954H2.23242V6.19122H7.60228Z" fill="#000001"/>
<path d="M2.23258 12.7777H1.55859V13.4394H2.23258V12.7777Z" fill="#000001"/>
<path d="M2.23258 6.1911H1.55859V6.84845H2.23258V6.1911Z" fill="#000001"/>
<path d="M1.5585 8.82489H4.91521V11.4629H5.58919V8.82489H6.25877V8.16754H1.5585V6.84851H0.888916V12.7776H1.5585V8.82489Z" fill="#000001"/>
<path d="M8.9458 8.16747V8.82482H9.61538V11.4629H10.285V8.82482H13.6417V12.7776H14.3157V5.52942H13.6417V8.16747H8.9458Z" fill="#000001"/>
<path d="M13.6417 12.7777H12.9722V13.4394H13.6417V12.7777Z" fill="#000001"/>
<path d="M13.6417 4.87219H12.9722V5.52954H13.6417V4.87219Z" fill="#000001"/>
<path d="M12.9723 6.1911H12.3027V6.84845H12.9723V6.1911Z" fill="#000001"/>
<path d="M12.9721 13.4394H2.23242V14.0967H12.9721V13.4394Z" fill="#000001"/>
<path d="M12.3025 6.84851H10.2849V7.50586H12.3025V6.84851Z" fill="#000001"/>
<path d="M12.3025 5.52942H10.2849V6.19109H12.3025V5.52942Z" fill="#000001"/>
<path d="M10.2851 6.1911H9.61548V6.84845H10.2851V6.1911Z" fill="#000001"/>
<path d="M9.61538 11.4631H8.9458V12.1204H9.61538V11.4631Z" fill="#000001"/>
<path d="M12.9722 4.21051H8.27197V4.87218H12.9722V4.21051Z" fill="#000001"/>
<path d="M6.93277 11.4631H8.27193V10.8014H8.94592V9.48236H8.27193V10.144H7.60235V9.48236H8.27193V8.82501H6.93277V9.48236H6.25879V10.8014H6.93277V11.4631Z" fill="#000001"/>
<path d="M8.94592 7.50574H6.25879V8.16741H8.94592V7.50574Z" fill="#000001"/>
<path d="M8.94592 12.1203H6.25879V12.7776H8.94592V12.1203Z" fill="#000001"/>
<path d="M8.27188 4.87219H7.60229V5.52954H8.27188V4.87219Z" fill="#000001"/>
<path d="M6.25894 11.4631H5.58936V12.1204H6.25894V11.4631Z" fill="#000001"/>
<path d="M6.25851 4.21051H4.24536V4.87218H6.25851V4.21051Z" fill="#000001"/>
<path d="M4.24566 6.84851H2.9021V7.50586H4.24566V6.84851Z" fill="#000001"/>
<path d="M7.60228 6.19122V5.52954H6.9327V4.87219H6.25871V5.52954H4.24557V4.87219H3.57599V5.52954H2.23242V6.19122H7.60228Z" fill="#000001"/>
<path d="M2.23258 12.7777H1.55859V13.4394H2.23258V12.7777Z" fill="#000001"/>
<path d="M2.23258 6.1911H1.55859V6.84845H2.23258V6.1911Z" fill="#000001"/>
<path d="M1.5585 8.82489H4.91521V11.4629H5.58919V8.82489H6.25877V8.16754H1.5585V6.84851H0.888916V12.7776H1.5585V8.82489Z" fill="#000001"/>
</svg>
