<svg width="39" height="39" viewBox="0 0 39 39" fill="none" xmlns="http://www.w3.org/2000/svg">
<path d="M12.8719 3.218H9.65396V4.82699H8.04496V6.43599H6.43597V8.04498H4.82698V9.65397H3.21799V12.872H1.60899V25.7439H3.21799V28.9619H4.82698V30.5709H6.43597V32.1799H8.04496V33.7889H9.65396V35.3979H12.8719V37.0069H25.7439V35.3979H28.9619V33.7889H30.5709V32.1799H32.1799V30.5709H33.7888V28.9619H35.3978V25.7439H37.0068V12.872H35.3978V9.65397H33.7888V8.04498H32.1799V6.43599H30.5709V4.82699H28.9619V3.218H25.7439V1.60901H12.8719V3.218ZM14.4809 17.6989H30.5709V20.9169H14.4809V22.5259H16.0899V24.1349H17.6989V25.7439H19.3079V27.3529H20.9169V28.9619H19.3079V30.5709H17.6989V28.9619H16.0899V27.3529H14.4809V25.7439H12.8719V24.1349H11.263V22.5259H9.65396V20.9169H8.04496V17.6989H9.65396V16.0899H11.263V14.481H12.8719V12.872H14.4809V11.263H16.0899V9.65397H17.6989V8.04498H19.3079V9.65397H20.9169V11.263H19.3079V12.872H17.6989V14.481H16.0899V16.0899H14.4809V17.6989Z" fill="#4A5565"/>
</svg>
