<svg width="16" height="16" viewBox="0 0 16 16" fill="none" xmlns="http://www.w3.org/2000/svg">
<path d="M8.94591 8.16747V8.82482H9.61549V11.4629H10.2851V8.82482H13.6418V12.7776H14.3158V5.52942H13.6418V8.16747H8.94591Z" fill="#000001"/>
<path d="M13.6419 12.7777H12.9723V13.4394H13.6419V12.7777Z" fill="#000001"/>
<path d="M13.6419 4.87219H12.9723V5.52954H13.6419V4.87219Z" fill="#000001"/>
<path d="M12.9724 6.1911H12.3028V6.84845H12.9724V6.1911Z" fill="#000001"/>
<path d="M12.9721 13.4394H2.23244V14.0967H12.9721V13.4394Z" fill="#000001"/>
<path d="M12.3026 6.84851H10.285V7.50586H12.3026V6.84851Z" fill="#000001"/>
<path d="M12.3026 5.52942H10.285V6.19109H12.3026V5.52942Z" fill="#000001"/>
<path d="M10.2851 6.1911H9.61555V6.84845H10.2851V6.1911Z" fill="#000001"/>
<path d="M9.61549 11.4631H8.94591V12.1204H9.61549V11.4631Z" fill="#000001"/>
<path d="M12.9722 4.21051H8.27193V4.87218H12.9722V4.21051Z" fill="#000001"/>
<path d="M6.9328 11.4631H8.27197V10.8014H8.94595V9.48236H8.27197V10.144H7.60238V9.48236H8.27197V8.82501H6.9328V9.48236H6.25882V10.8014H6.9328V11.4631Z" fill="#000001"/>
<path d="M8.94595 7.50574H6.25882V8.16741H8.94595V7.50574Z" fill="#000001"/>
<path d="M8.94595 12.1203H6.25882V12.7776H8.94595V12.1203Z" fill="#000001"/>
<path d="M8.27204 4.87219H7.60246V5.52954H8.27204V4.87219Z" fill="#000001"/>
<path d="M6.25894 11.4631H5.58936V12.1204H6.25894V11.4631Z" fill="#000001"/>
<path d="M6.25867 4.21051H4.24553V4.87218H6.25867V4.21051Z" fill="#000001"/>
<path d="M4.24565 6.84851H2.90208V7.50586H4.24565V6.84851Z" fill="#000001"/>
<path d="M7.60229 6.19122V5.52954H6.93271V4.87219H6.25873V5.52954H4.24558V4.87219H3.576V5.52954H2.23244V6.19122H7.60229Z" fill="#000001"/>
<path d="M2.23261 12.7777H1.55862V13.4394H2.23261V12.7777Z" fill="#000001"/>
<path d="M2.23261 6.1911H1.55862V6.84845H2.23261V6.1911Z" fill="#000001"/>
<path d="M1.55856 8.82489H4.91527V11.4629H5.58925V8.82489H6.25883V8.16754H1.55856V6.84851H0.888977V12.7776H1.55856V8.82489Z" fill="#000001"/>
<path d="M8.94591 8.16747V8.82482H9.61549V11.4629H10.2851V8.82482H13.6418V12.7776H14.3158V5.52942H13.6418V8.16747H8.94591Z" fill="#000001"/>
<path d="M13.6419 12.7777H12.9723V13.4394H13.6419V12.7777Z" fill="#000001"/>
<path d="M13.6419 4.87219H12.9723V5.52954H13.6419V4.87219Z" fill="#000001"/>
<path d="M12.9724 6.1911H12.3028V6.84845H12.9724V6.1911Z" fill="#000001"/>
<path d="M12.9721 13.4394H2.23244V14.0967H12.9721V13.4394Z" fill="#000001"/>
<path d="M12.3026 6.84851H10.285V7.50586H12.3026V6.84851Z" fill="#000001"/>
<path d="M12.3026 5.52942H10.285V6.19109H12.3026V5.52942Z" fill="#000001"/>
<path d="M10.2851 6.1911H9.61555V6.84845H10.2851V6.1911Z" fill="#000001"/>
<path d="M9.61549 11.4631H8.94591V12.1204H9.61549V11.4631Z" fill="#000001"/>
<path d="M12.9722 4.21051H8.27193V4.87218H12.9722V4.21051Z" fill="#000001"/>
<path d="M6.9328 11.4631H8.27197V10.8014H8.94595V9.48236H8.27197V10.144H7.60238V9.48236H8.27197V8.82501H6.9328V9.48236H6.25882V10.8014H6.9328V11.4631Z" fill="#000001"/>
<path d="M8.94595 7.50574H6.25882V8.16741H8.94595V7.50574Z" fill="#000001"/>
<path d="M8.94595 12.1203H6.25882V12.7776H8.94595V12.1203Z" fill="#000001"/>
<path d="M8.27204 4.87219H7.60246V5.52954H8.27204V4.87219Z" fill="#000001"/>
<path d="M6.25894 11.4631H5.58936V12.1204H6.25894V11.4631Z" fill="#000001"/>
<path d="M6.25867 4.21051H4.24553V4.87218H6.25867V4.21051Z" fill="#000001"/>
<path d="M4.24565 6.84851H2.90208V7.50586H4.24565V6.84851Z" fill="#000001"/>
<path d="M7.60229 6.19122V5.52954H6.93271V4.87219H6.25873V5.52954H4.24558V4.87219H3.576V5.52954H2.23244V6.19122H7.60229Z" fill="#000001"/>
<path d="M2.23261 12.7777H1.55862V13.4394H2.23261V12.7777Z" fill="#000001"/>
<path d="M2.23261 6.1911H1.55862V6.84845H2.23261V6.1911Z" fill="#000001"/>
<path d="M1.55856 8.82489H4.91527V11.4629H5.58925V8.82489H6.25883V8.16754H1.55856V6.84851H0.888977V12.7776H1.55856V8.82489Z" fill="#000001"/>
</svg>
