<svg width="18" height="24" viewBox="0 0 18 24" fill="none" xmlns="http://www.w3.org/2000/svg">
<g filter="url(#filter0_d_422_4033)">
<path d="M2 15V13H3V12H4V11H5V10H6V9H7V7H6V6H5V5H4V4H3V3H2V1H3V0H5V1H6V2H7V3H8V4H9V5H10V6H11V7H12V9H11V10H10V11H9V12H8V13H7V14H6V15H5V16H3V15H2Z" fill="white"/>
</g>
<defs>
<filter id="filter0_d_422_4033" x="0" y="0" width="18" height="24" filterUnits="userSpaceOnUse" color-interpolation-filters="sRGB">
<feFlood flood-opacity="0" result="BackgroundImageFix"/>
<feColorMatrix in="SourceAlpha" type="matrix" values="0 0 0 0 0 0 0 0 0 0 0 0 0 0 0 0 0 0 127 0" result="hardAlpha"/>
<feOffset dx="2" dy="4"/>
<feGaussianBlur stdDeviation="2"/>
<feComposite in2="hardAlpha" operator="out"/>
<feColorMatrix type="matrix" values="0 0 0 0 0 0 0 0 0 0 0 0 0 0 0 0 0 0 1 0"/>
<feBlend mode="normal" in2="BackgroundImageFix" result="effect1_dropShadow_422_4033"/>
<feBlend mode="normal" in="SourceGraphic" in2="effect1_dropShadow_422_4033" result="shape"/>
</filter>
</defs>
</svg>
