<svg width="14" height="14" viewBox="0 0 14 14" fill="none" xmlns="http://www.w3.org/2000/svg">
<g clip-path="url(#clip0_166_5896)">
<path d="M6.72108 1.33848C6.74663 1.28684 6.78611 1.24338 6.83506 1.21299C6.88401 1.18261 6.94047 1.1665 6.99809 1.1665C7.0557 1.1665 7.11216 1.18261 7.16111 1.21299C7.21006 1.24338 7.24954 1.28684 7.27509 1.33848L8.62223 4.06716C8.71098 4.24676 8.84198 4.40214 9.00399 4.51996C9.166 4.63779 9.35419 4.71455 9.55239 4.74364L12.5651 5.18452C12.6222 5.19279 12.6758 5.21687 12.7199 5.25403C12.764 5.2912 12.7968 5.33996 12.8147 5.39482C12.8325 5.44967 12.8347 5.50842 12.8209 5.56442C12.807 5.62042 12.7778 5.67144 12.7365 5.71171L10.5578 7.8333C10.4141 7.97332 10.3066 8.14617 10.2445 8.33695C10.1825 8.52773 10.1677 8.73074 10.2015 8.92851L10.7158 11.926C10.7259 11.9831 10.7197 12.0418 10.698 12.0955C10.6763 12.1493 10.64 12.1958 10.5931 12.2299C10.5462 12.2639 10.4907 12.2841 10.4329 12.2881C10.3751 12.2921 10.3173 12.2798 10.2662 12.2526L7.5731 10.8367C7.39565 10.7435 7.19822 10.6948 6.99779 10.6948C6.79737 10.6948 6.59994 10.7435 6.42249 10.8367L3.72997 12.2526C3.67885 12.2797 3.62115 12.2918 3.56345 12.2877C3.50574 12.2836 3.45035 12.2634 3.40357 12.2294C3.35678 12.1954 3.32048 12.1489 3.2988 12.0953C3.27712 12.0416 3.27093 11.983 3.28093 11.926L3.7947 8.92909C3.82864 8.73124 3.81394 8.5281 3.75186 8.33719C3.68979 8.14629 3.5822 7.97335 3.43838 7.8333L1.25964 5.71229C1.218 5.67207 1.18849 5.62097 1.17448 5.56479C1.16046 5.50862 1.16251 5.44964 1.18037 5.39457C1.19824 5.33951 1.23122 5.29057 1.27555 5.25332C1.31987 5.21608 1.37377 5.19204 1.43109 5.18394L4.4432 4.74364C4.64162 4.71477 4.83007 4.63812 4.9923 4.52028C5.15454 4.40243 5.28571 4.24693 5.37453 4.06716L6.72108 1.33848Z" fill="#FFD54F" stroke="#FFD54F" stroke-width="1.74953" stroke-linecap="round" stroke-linejoin="round"/>
</g>
<defs>
<clipPath id="clip0_166_5896">
<rect width="13.9962" height="13.9962" fill="white"/>
</clipPath>
</defs>
</svg>
