<svg width="22" height="22" viewBox="0 0 22 22" fill="none" xmlns="http://www.w3.org/2000/svg">
<g clip-path="url(#clip0_316_6643)">
<path d="M12.7462 3.56012H15.077V4.78621H16.2385V6.02038H17.4078V8.48064H18.5693V14.6192H17.4078V17.0795H16.2385V18.3136H15.077V19.5397H12.7462V20.7658H6.9231V22H15.077V20.7658H17.4078V19.5397H18.5693V18.3136H19.7385V17.0795H20.9001V14.6192H22.0617V8.48064H20.9001V6.02038H19.7385V4.78621H18.5693V3.56012H17.4078V2.33402H15.077V1.09985H6.9231V2.33402H12.7462V3.56012Z" fill="#4A5565"/>
<path d="M17.4077 8.48071H16.2385V14.6193H17.4077V8.48071Z" fill="#4A5565"/>
<path d="M16.2385 14.6191H15.0769V15.8533H16.2385V14.6191Z" fill="#4A5565"/>
<path d="M16.2385 7.24646H15.0769V8.48062H16.2385V7.24646Z" fill="#4A5565"/>
<path d="M15.077 15.8534H13.9154V17.0795H15.077V15.8534Z" fill="#4A5565"/>
<path d="M15.077 6.02039H13.9154V7.24648H15.077V6.02039Z" fill="#4A5565"/>
<path d="M13.9153 17.0795H12.7461V18.3136H13.9153V17.0795Z" fill="#4A5565"/>
<path d="M13.9153 4.78613H12.7461V6.0203H13.9153V4.78613Z" fill="#4A5565"/>
<path d="M12.7462 18.3137H6.9231V19.5398H12.7462V18.3137Z" fill="#4A5565"/>
<path d="M12.7462 12.167H11.5846V14.6192H12.7462V12.167Z" fill="#4A5565"/>
<path d="M12.7462 8.48071H11.5846V9.70681H12.7462V8.48071Z" fill="#4A5565"/>
<path d="M12.7462 3.56018H6.9231V4.78628H12.7462V3.56018Z" fill="#4A5565"/>
<path d="M9.25373 15.8534V17.0795H10.4153V15.8534H11.5845V14.6192H10.4153V12.167H11.5845V10.9328H10.4153V8.48065H11.5845V7.24648H10.4153V6.02039H9.25373V7.24648H8.09216V8.48065H9.25373V10.9328H8.09216V12.167H9.25373V14.6192H8.09216V15.8534H9.25373Z" fill="#4A5565"/>
<path d="M8.0923 13.3932H6.9231V14.6193H8.0923V13.3932Z" fill="#4A5565"/>
<path d="M8.0923 8.48071H6.9231V10.9329H8.0923V8.48071Z" fill="#4A5565"/>
<path d="M6.92311 19.5398H4.59998V20.7659H6.92311V19.5398Z" fill="#4A5565"/>
<path d="M6.92304 17.0795H5.76147V18.3136H6.92304V17.0795Z" fill="#4A5565"/>
<path d="M6.92304 4.78613H5.76147V6.0203H6.92304V4.78613Z" fill="#4A5565"/>
<path d="M6.92311 2.33411H4.59998V3.5602H6.92311V2.33411Z" fill="#4A5565"/>
<path d="M5.76154 15.8534H4.59998V17.0795H5.76154V15.8534Z" fill="#4A5565"/>
<path d="M5.76154 6.02039H4.59998V7.24648H5.76154V6.02039Z" fill="#4A5565"/>
<path d="M4.59987 18.3137H3.43066V19.5398H4.59987V18.3137Z" fill="#4A5565"/>
<path d="M4.59987 14.6191H3.43066V15.8533H4.59987V14.6191Z" fill="#4A5565"/>
<path d="M4.59987 7.24646H3.43066V8.48062H4.59987V7.24646Z" fill="#4A5565"/>
<path d="M4.59987 3.56018H3.43066V4.78628H4.59987V3.56018Z" fill="#4A5565"/>
<path d="M3.43073 17.0795H2.26917V18.3136H3.43073V17.0795Z" fill="#4A5565"/>
<path d="M3.43073 8.48071H2.26917V14.6193H3.43073V8.48071Z" fill="#4A5565"/>
<path d="M3.43073 4.78613H2.26917V6.0203H3.43073V4.78613Z" fill="#4A5565"/>
<path d="M2.26906 14.6191H1.09985V17.0794H2.26906V14.6191Z" fill="#4A5565"/>
<path d="M2.26906 6.02039H1.09985V8.48065H2.26906V6.02039Z" fill="#4A5565"/>
<path d="M1.09992 8.48071H-0.0616455V14.6193H1.09992V8.48071Z" fill="#4A5565"/>
</g>
<defs>
<clipPath id="clip0_316_6643">
<rect width="22" height="22" fill="white"/>
</clipPath>
</defs>
</svg>
