<svg width="18" height="18" viewBox="0 0 18 18" fill="none" xmlns="http://www.w3.org/2000/svg">
<g clip-path="url(#clip0_316_6806)">
<path d="M10.4287 2.91284H12.3357V3.91602H13.286V4.92579H14.2427V6.93873H15.193V11.9612H14.2427V13.9741H13.286V14.9839H12.3357V15.9871H10.4287V16.9902H5.66431V18H12.3357V16.9902H14.2427V15.9871H15.193V14.9839H16.1497V13.9741H17.1V11.9612H18.0504V6.93873H17.1V4.92579H16.1497V3.91602H15.193V2.91284H14.2427V1.90967H12.3357V0.899902H5.66431V1.90967H10.4287V2.91284Z" fill="#4A5565"/>
<path d="M14.2428 6.93872H13.2861V11.9612H14.2428V6.93872Z" fill="#4A5565"/>
<path d="M13.2861 11.9612H12.3357V12.971H13.2861V11.9612Z" fill="#4A5565"/>
<path d="M13.2861 5.92896H12.3357V6.93873H13.2861V5.92896Z" fill="#4A5565"/>
<path d="M12.3357 12.9711H11.3854V13.9742H12.3357V12.9711Z" fill="#4A5565"/>
<path d="M12.3357 4.92578H11.3854V5.92895H12.3357V4.92578Z" fill="#4A5565"/>
<path d="M11.3853 13.9741H10.4287V14.9839H11.3853V13.9741Z" fill="#4A5565"/>
<path d="M11.3853 3.91602H10.4287V4.92579H11.3853V3.91602Z" fill="#4A5565"/>
<path d="M10.4287 14.984H5.66431V15.9872H10.4287V14.984Z" fill="#4A5565"/>
<path d="M10.4288 9.95483H9.47839V11.9612H10.4288V9.95483Z" fill="#4A5565"/>
<path d="M10.4288 6.93872H9.47839V7.94189H10.4288V6.93872Z" fill="#4A5565"/>
<path d="M10.4287 2.91284H5.66431V3.91601H10.4287V2.91284Z" fill="#4A5565"/>
<path d="M7.57134 12.9709V13.9741H8.52172V12.9709H9.47834V11.9612H8.52172V9.95484H9.47834V8.94507H8.52172V6.93872H9.47834V5.92895H8.52172V4.92578H7.57134V5.92895H6.62097V6.93872H7.57134V8.94507H6.62097V9.95484H7.57134V11.9612H6.62097V12.9709H7.57134Z" fill="#4A5565"/>
<path d="M6.62093 10.958H5.66431V11.9612H6.62093V10.958Z" fill="#4A5565"/>
<path d="M6.62093 6.93872H5.66431V8.94506H6.62093V6.93872Z" fill="#4A5565"/>
<path d="M5.66429 15.9871H3.76355V16.9902H5.66429V15.9871Z" fill="#4A5565"/>
<path d="M5.66424 13.9741H4.71387V14.9839H5.66424V13.9741Z" fill="#4A5565"/>
<path d="M5.66424 3.91602H4.71387V4.92579H5.66424V3.91602Z" fill="#4A5565"/>
<path d="M5.66429 1.90979H3.76355V2.91296H5.66429V1.90979Z" fill="#4A5565"/>
<path d="M4.71392 12.9711H3.76355V13.9742H4.71392V12.9711Z" fill="#4A5565"/>
<path d="M4.71392 4.92578H3.76355V5.92895H4.71392V4.92578Z" fill="#4A5565"/>
<path d="M3.76351 14.984H2.80688V15.9872H3.76351V14.984Z" fill="#4A5565"/>
<path d="M3.76351 11.9612H2.80688V12.971H3.76351V11.9612Z" fill="#4A5565"/>
<path d="M3.76351 5.92896H2.80688V6.93873H3.76351V5.92896Z" fill="#4A5565"/>
<path d="M3.76351 2.91284H2.80688V3.91601H3.76351V2.91284Z" fill="#4A5565"/>
<path d="M2.80694 13.9741H1.85657V14.9839H2.80694V13.9741Z" fill="#4A5565"/>
<path d="M2.80694 6.93872H1.85657V11.9612H2.80694V6.93872Z" fill="#4A5565"/>
<path d="M2.80694 3.91602H1.85657V4.92579H2.80694V3.91602Z" fill="#4A5565"/>
<path d="M1.85653 11.9612H0.899902V13.9741H1.85653V11.9612Z" fill="#4A5565"/>
<path d="M1.85653 4.92578H0.899902V6.93872H1.85653V4.92578Z" fill="#4A5565"/>
<path d="M0.899957 6.93872H-0.050415V11.9612H0.899957V6.93872Z" fill="#4A5565"/>
</g>
<defs>
<clipPath id="clip0_316_6806">
<rect width="18" height="18" fill="white"/>
</clipPath>
</defs>
</svg>
