<svg width="20" height="20" viewBox="0 0 20 20" fill="none" xmlns="http://www.w3.org/2000/svg">
<g clip-path="url(#clip0_298_6388)">
<path d="M13.3305 17.4964V15.8301C13.3305 14.9462 12.9794 14.0985 12.3544 13.4735C11.7294 12.8486 10.8817 12.4974 9.99786 12.4974H4.9989C4.11503 12.4974 3.26736 12.8486 2.64237 13.4735C2.01738 14.0985 1.66626 14.9462 1.66626 15.8301V17.4964" stroke="white" stroke-width="2.49948" stroke-linecap="round" stroke-linejoin="round"/>
<path d="M7.49841 9.16479C9.33898 9.16479 10.8311 7.67272 10.8311 5.83215C10.8311 3.99159 9.33898 2.49951 7.49841 2.49951C5.65785 2.49951 4.16577 3.99159 4.16577 5.83215C4.16577 7.67272 5.65785 9.16479 7.49841 9.16479Z" stroke="white" stroke-width="2.49948" stroke-linecap="round" stroke-linejoin="round"/>
<path d="M18.3296 17.4964V15.83C18.329 15.0916 18.0832 14.3743 17.6308 13.7907C17.1784 13.2071 16.545 12.7903 15.8301 12.6057" stroke="white" stroke-width="2.49948" stroke-linecap="round" stroke-linejoin="round"/>
<path d="M13.3306 2.60779C14.0474 2.79133 14.6828 3.20825 15.1366 3.7928C15.5903 4.37735 15.8366 5.0963 15.8366 5.83628C15.8366 6.57627 15.5903 7.29521 15.1366 7.87977C14.6828 8.46432 14.0474 8.88123 13.3306 9.06478" stroke="white" stroke-width="2.49948" stroke-linecap="round" stroke-linejoin="round"/>
</g>
<defs>
<clipPath id="clip0_298_6388">
<rect width="19.9958" height="19.9958" fill="white"/>
</clipPath>
</defs>
</svg>
