<svg width="24" height="24" viewBox="0 0 24 24" fill="none" xmlns="http://www.w3.org/2000/svg">
<g clip-path="url(#clip0_0_235)">
<path d="M18.5 13.5V15.5H19.5V17.5H13.5V15.5H14.5V13.5H18.5Z" fill="#6A7282" stroke="white"/>
<path d="M19.5 1.5V2.5H20.5V4.5H22.5V6.5H21.5V7.5H20.5V8.5H17.5V7.5H16.5V6.5H15.5V4.5H16.5V3.5H15.5V1.5H19.5Z" fill="#6A7282" stroke="white"/>
<path d="M22.5 8.5V9.5H23.5V22.5H22.5V23.5H10.5V22.5H9.5V9.5H10.5V8.5H22.5ZM15.5 13.5H14.5V14.5H13.5V16.5H12.5V20.5H13.5V17.5H19.5V20.5H20.5V16.5H19.5V14.5H18.5V13.5H17.5V12.5H15.5V13.5Z" fill="#6A7282" stroke="white"/>
<path d="M7.5 6.5V8.5H6.5V9.5H3.5V6.5H7.5Z" fill="#6A7282" stroke="white"/>
<path d="M13.5 0.5V1.5H14.5V8.5H10.5V9.5H9.5V15.5H1.5V14.5H0.5V1.5H1.5V0.5H13.5ZM4.5 6.5H3.5V9.5H4.5V10.5H5.5V9.5H7.5V7.5H8.5V6.5H5.5V5.5H4.5V6.5ZM10.5 6.5V5.5H9.5V6.5H10.5Z" fill="#6A7282" stroke="white"/>
<path d="M6.5 15.5V16.5H7.5V17.5H8.5V19.5H7.5V20.5H8.5V22.5H4.5V21.5H3.5V19.5H1.5V17.5H2.5V16.5H3.5V15.5H6.5Z" fill="#6A7282" stroke="white"/>
</g>
<defs>
<clipPath id="clip0_0_235">
<rect width="24" height="24" fill="white"/>
</clipPath>
</defs>
</svg>
