<svg width="16" height="12" viewBox="0 0 16 12" fill="none" xmlns="http://www.w3.org/2000/svg">
<rect x="5.17053" y="6.46313" width="1.29264" height="1.29264" fill="#FF2ED1"/>
<rect x="6.46313" y="6.46313" width="1.29264" height="1.29264" fill="#FF2ED1"/>
<rect x="7.75586" y="6.46313" width="1.29264" height="1.29264" fill="#FF2ED1"/>
<rect x="7.75586" y="5.17065" width="1.29264" height="1.29264" fill="#FF2ED1"/>
<rect x="7.75586" y="3.87793" width="1.29264" height="1.29264" fill="#FF2ED1"/>
<rect x="6.46313" y="1.37891" width="1.29264" height="1.29264" fill="#FF5ADB"/>
<rect x="5.17053" y="0.0861816" width="1.29264" height="1.29264" fill="#FF5ADB"/>
<rect x="3.87793" y="0.0861816" width="1.29264" height="1.29264" fill="#FF5ADB"/>
<rect x="2.58533" y="1.29272" width="1.29264" height="1.29264" fill="#FF5ADB"/>
<rect x="1.2926" y="2.67139" width="1.29264" height="1.29264" fill="#FF5ADB"/>
<rect x="1.2926" y="3.87793" width="1.29264" height="1.29264" fill="#FF5ADB"/>
<rect x="2.58533" y="5.17065" width="1.29264" height="1.29264" fill="#FF5ADB"/>
<rect x="3.87793" y="6.46313" width="1.29264" height="1.29264" fill="#FF5ADB"/>
<rect x="5.17053" y="7.75586" width="1.29264" height="1.29264" fill="#FF5ADB"/>
<rect x="6.46313" y="9.04834" width="1.29264" height="1.29264" fill="#FF5ADB"/>
<rect x="7.75586" y="10.3411" width="1.29264" height="1.29264" fill="#FF5ADB"/>
<rect x="9.04846" y="9.04834" width="1.29264" height="1.29264" fill="#FF5ADB"/>
<rect x="10.3411" y="7.75586" width="1.29264" height="1.29264" fill="#FF5ADB"/>
<rect x="11.6338" y="6.46313" width="1.29264" height="1.29264" fill="#FF5ADB"/>
<rect x="12.9264" y="5.17065" width="1.29264" height="1.29264" fill="#FF5ADB"/>
<rect x="14.219" y="3.87793" width="1.29264" height="1.29264" fill="#FF5ADB"/>
<rect x="14.219" y="2.67139" width="1.29264" height="1.29264" fill="#FF5ADB"/>
<rect x="12.9264" y="1.29272" width="1.29264" height="1.29264" fill="#FF5ADB"/>
<rect x="11.6338" width="1.29264" height="1.29264" fill="#FF5ADB"/>
<rect x="10.3411" width="1.29264" height="1.29264" fill="#FF5ADB"/>
<rect x="9.04846" y="1.29272" width="1.29264" height="1.29264" fill="#FF5ADB"/>
<rect x="7.75586" y="2.67139" width="1.29264" height="1.29264" fill="#FF5ADB"/>
<rect x="5.17053" y="1.37891" width="1.29264" height="1.29264" fill="#FF2ED1"/>
<rect x="3.87793" y="1.37891" width="1.29264" height="1.29264" fill="#FF2ED1"/>
<rect x="2.58533" y="2.58521" width="1.29264" height="1.29264" fill="#FF2ED1"/>
<rect x="5.17053" y="2.58521" width="1.29264" height="1.29264" fill="#FFDBF7"/>
<rect x="3.87793" y="3.87793" width="1.29264" height="1.29264" fill="#FFDBF7"/>
<rect x="3.87793" y="2.58521" width="1.29264" height="1.29264" fill="#FF2ED1"/>
<rect x="6.46313" y="2.67139" width="1.29264" height="1.29264" fill="#FF2ED1"/>
<rect x="6.46313" y="3.87793" width="1.29264" height="1.29264" fill="#FF2ED1"/>
<rect x="6.46313" y="5.17065" width="1.29264" height="1.29264" fill="#FF2ED1"/>
<rect x="5.17053" y="5.17065" width="1.29264" height="1.29264" fill="#FF2ED1"/>
<rect x="5.17053" y="3.87793" width="1.29264" height="1.29264" fill="#FF2ED1"/>
<rect x="3.87793" y="5.17065" width="1.29264" height="1.29264" fill="#FF2ED1"/>
<rect x="2.58533" y="3.87793" width="1.29264" height="1.29264" fill="#FF2ED1"/>
<rect x="7.75586" y="9.04834" width="1.29264" height="1.29264" fill="#FF2ED1"/>
<rect x="9.04846" y="7.75586" width="1.29264" height="1.29264" fill="#FF2ED1"/>
<rect x="7.75586" y="7.75586" width="1.29264" height="1.29264" fill="#FF2ED1"/>
<rect x="6.46313" y="7.75586" width="1.29264" height="1.29264" fill="#FF2ED1"/>
<rect x="10.3411" y="6.46313" width="1.29264" height="1.29264" fill="#FF2ED1"/>
<rect x="10.3411" y="5.17065" width="1.29264" height="1.29264" fill="#FF2ED1"/>
<rect x="10.3411" y="3.87793" width="1.29264" height="1.29264" fill="#FF2ED1"/>
<rect x="9.04846" y="2.58521" width="1.29264" height="1.29264" fill="#FF2ED1"/>
<rect x="9.04846" y="3.87793" width="1.29264" height="1.29264" fill="#FF2ED1"/>
<rect x="9.04846" y="5.17065" width="1.29264" height="1.29264" fill="#FF2ED1"/>
<rect x="9.04846" y="6.46313" width="1.29264" height="1.29264" fill="#FF2ED1"/>
<rect x="10.3411" y="2.58521" width="1.29264" height="1.29264" fill="#FF2ED1"/>
<rect x="10.3411" y="1.29272" width="1.29264" height="1.29264" fill="#FF2ED1"/>
<rect x="11.6338" y="1.29272" width="1.29264" height="1.29264" fill="#FF2ED1"/>
<rect x="11.6338" y="2.58521" width="1.29264" height="1.29264" fill="#FF2ED1"/>
<rect x="11.6338" y="3.87793" width="1.29264" height="1.29264" fill="#FF2ED1"/>
<rect x="11.6338" y="5.17065" width="1.29264" height="1.29264" fill="#FF2ED1"/>
<rect x="12.9264" y="2.58521" width="1.29264" height="1.29264" fill="#FF2ED1"/>
<rect x="12.9264" y="3.87793" width="1.29264" height="1.29264" fill="#FF2ED1"/>
<rect x="6.46313" y="10.3411" width="1.29264" height="1.29264" fill="#343434"/>
<rect x="5.17053" y="9.04834" width="1.29264" height="1.29264" fill="#343434"/>
<rect x="7.75586" y="1.37891" width="1.29264" height="1.29264" fill="#343434"/>
<rect x="3.87793" y="7.75586" width="1.29264" height="1.29264" fill="#343434"/>
<rect x="2.58533" y="6.46313" width="1.29264" height="1.29264" fill="#343434"/>
<rect x="1.2926" y="5.17065" width="1.29264" height="1.29264" fill="#343434"/>
<rect y="3.87793" width="1.29264" height="1.29264" fill="#343434"/>
<rect y="2.67139" width="1.29264" height="1.29264" fill="#343434"/>
<rect x="1.2926" y="1.37891" width="1.29264" height="1.29264" fill="#343434"/>
<rect x="2.58533" y="0.0861816" width="1.29264" height="1.29264" fill="#343434"/>
<rect x="9.04846" width="1.29264" height="1.29264" fill="#343434"/>
</svg>
