<svg width="39" height="39" viewBox="0 0 39 39" fill="none" xmlns="http://www.w3.org/2000/svg">
<path d="M12.8718 3.218H9.65385V4.82699H8.04486V6.43599H6.43587V8.04498H4.82687V9.65397H3.21788V12.872H1.60889V25.7439H3.21788V28.9619H4.82687V30.5709H6.43587V32.1799H8.04486V33.7889H9.65385V35.3979H12.8718V37.0069H25.7438V35.3979H28.9618V33.7889H30.5708V32.1799H32.1798V30.5709H33.7887V28.9619H35.3977V25.7439H37.0067V12.872H35.3977V9.65397H33.7887V8.04498H32.1798V6.43599H30.5708V4.82699H28.9618V3.218H25.7438V1.60901H12.8718V3.218ZM14.4808 17.6989H30.5708V20.9169H14.4808V22.5259H16.0898V24.1349H17.6988V25.7439H19.3078V27.3529H20.9168V28.9619H19.3078V30.5709H17.6988V28.9619H16.0898V27.3529H14.4808V25.7439H12.8718V24.1349H11.2628V22.5259H9.65385V20.9169H8.04486V17.6989H9.65385V16.0899H11.2628V14.481H12.8718V12.872H14.4808V11.263H16.0898V9.65397H17.6988V8.04498H19.3078V9.65397H20.9168V11.263H19.3078V12.872H17.6988V14.481H16.0898V16.0899H14.4808V17.6989Z" fill="#4A5565"/>
</svg>
