<svg width="22" height="23" viewBox="0 0 22 23" fill="none" xmlns="http://www.w3.org/2000/svg">
<g clip-path="url(#clip0_25_1958)">
<path d="M22 5.79903C21.9358 5.80912 21.6264 5.78461 21.613 5.79903C21.5799 5.83363 21.6758 6.22143 21.5552 6.2618C21.3494 6.331 20.8349 6.22071 20.5924 6.26684V5.38528C20.5924 5.38167 20.543 5.33121 20.5395 5.33121H19.6775C19.6091 5.22597 19.7 4.94918 19.6627 4.89728C19.6028 4.81294 19.1848 4.9189 19.1848 4.80934V3.89173C18.5659 3.79154 18.9127 4.15411 18.7661 4.34513C18.7146 4.41144 18.3608 4.42082 18.303 4.37973C18.217 4.31846 18.3227 3.96886 18.2368 3.90759C18.1508 3.84632 17.8505 3.94363 17.7927 3.85785C17.7243 3.75694 17.8075 2.68435 17.7842 2.47748C17.8188 2.30376 18.2008 2.41549 18.2346 2.38017C18.253 2.36143 18.186 1.91235 18.3227 1.91235H19.2553V2.38017C19.3547 2.39963 19.6718 2.32755 19.7078 2.43927C19.7769 2.65552 19.6317 3.12982 19.8008 3.35184H20.6629C20.6319 3.84055 20.6417 3.85209 21.1203 3.81965L21.1549 4.756C21.2994 4.77402 21.5757 4.68175 21.6116 4.88286C21.6722 5.22021 21.4728 5.29662 21.9993 5.25985V5.79975L22 5.79903ZM19.6387 3.42752L19.2553 3.42392V3.82037H19.6422C19.6338 3.68414 19.6881 3.56015 19.6387 3.42824V3.42752ZM21.0498 4.8634H20.6622C20.6861 5.02919 20.5776 5.23462 20.7841 5.26129C21.133 5.30671 21.0442 5.14236 21.0498 4.8634Z" fill="black"/>
<path d="M8.03044 9.5415V10.0454C8.50692 9.91849 8.56543 10.0439 8.52314 10.5132H8.98129V10.981H9.43875V13.4282H8.98129V14.3458C8.98129 14.4359 8.57107 14.389 8.4886 14.3998V14.8684H8.03115V15.786C8.03115 15.8739 7.65264 15.8307 7.57369 15.8401C7.61951 16.0995 7.50814 17.5232 7.5892 17.6421C7.63784 17.7135 7.93388 17.6601 8.03115 17.676V18.6477H8.4886C8.50622 18.7478 8.45617 19.0117 8.5041 19.0816C8.56402 19.1695 8.90587 19.0614 8.96579 19.1493C9.01372 19.2193 8.96297 19.4831 8.98129 19.584C9.06024 19.5927 9.43875 19.5494 9.43875 19.6381V22.0312L8.98129 22.0672C9.02499 22.5942 8.96861 22.556 8.4886 22.535V23.0029H5.69102C5.60503 23.0029 5.64732 22.6158 5.63816 22.535H5.18V22.0672C5.07991 22.0499 4.75215 22.1062 4.70281 22.0341L4.6873 21.0963C4.60836 21.0876 4.22985 21.1309 4.22985 21.0422V19.189C4.11989 19.1645 3.73716 19.2611 3.73716 19.0989V17.7495C3.25856 17.7819 3.24798 17.7704 3.2797 17.2817C3.18384 17.2658 2.88569 17.3192 2.83776 17.2485C2.76586 17.1433 2.87864 16.4499 2.80674 16.3446C2.74401 16.2516 2.41132 16.3821 2.36973 16.2516L2.35987 14.9304C2.31546 14.7913 1.92144 14.952 1.87704 14.8122L1.8721 11.5785C1.87069 11.4257 2.34224 11.4755 2.3648 11.4531C2.32603 10.9997 2.37819 10.9457 2.82225 10.9853V10.5168H3.2797C3.30367 10.4923 3.2501 10.111 3.28464 10.054C3.3375 9.96607 4.50827 10.036 4.6873 10.0129C4.69576 9.93219 4.65347 9.54511 4.74017 9.54511H8.03044V9.5415Z" fill="black"/>
<path d="M13.5896 9.2C13.56 9.10197 13.2231 9.16108 13.1322 9.14594V8.20959C12.9856 8.18725 12.679 8.29032 12.6409 8.08273V5.81646C12.6473 5.64202 13.0582 5.76745 13.0977 5.72708L13.1322 4.79073L14.0478 4.75541C14.0866 4.71721 13.9653 4.29409 14.1352 4.2876H17.3021C17.4875 4.31931 17.3197 4.69847 17.4241 4.77559L18.702 4.76262C18.8613 4.81091 18.7781 5.1288 18.7971 5.25927C18.8761 5.26792 19.2546 5.22467 19.2546 5.31333V6.19489C19.3385 6.19922 19.6697 6.17543 19.7071 6.23598C19.7416 6.29293 19.6923 6.6036 19.712 6.69875C19.7536 6.74128 20.1949 6.61081 20.2047 6.78813L20.1998 9.55393C20.1638 9.66709 19.8156 9.59213 19.712 9.61303V10.5847H19.2546V11.5203C19.1587 11.5362 18.8613 11.4828 18.8126 11.5542C18.7407 11.6594 18.8535 12.3529 18.7816 12.4581C18.733 12.5295 18.4355 12.4754 18.3397 12.4913C18.2903 12.5417 18.4088 13.7664 18.3087 13.9099C18.2713 13.9639 17.9654 13.9142 17.8822 13.9308V15.2801C17.8822 15.4063 17.4727 15.3666 17.3895 15.3702C17.3564 15.4041 17.4353 16.1833 17.374 16.2727C17.3127 16.3621 17.0061 16.254 16.9476 16.3405C16.8933 16.4205 16.9666 16.7052 16.9271 16.7694C16.8701 16.8623 16.5458 16.7585 16.4901 16.8061C16.3752 16.9049 16.4944 17.2004 16.4063 17.2624C16.3372 17.3114 16.0799 17.2595 15.9819 17.2783V17.7461H13.6418C13.5558 17.7461 13.5981 17.359 13.5889 17.2783C13.1103 17.3107 13.0998 17.2999 13.1315 16.8104C13.0039 16.791 12.6931 16.8768 12.6458 16.7131L12.6388 14.4173C12.6458 14.2429 13.0568 14.3683 13.0962 14.3279C13.1075 14.2162 13.0582 13.9221 13.1555 13.8572C13.2647 13.7837 13.5029 13.9293 13.5734 13.8262C13.7123 13.6237 13.3155 13.2496 14.0464 13.3563V12.4747C14.0464 12.3291 14.5038 12.4098 14.5038 12.3846V10.5854C14.0252 10.6179 14.0147 10.6063 14.0464 10.1176C13.892 10.1176 13.737 10.1335 13.5889 10.0816C13.5474 9.86028 13.6453 9.38597 13.5889 9.2H13.5896Z" fill="black"/>
<path d="M8.97986 5.72695C9.45845 5.69452 9.46903 5.70533 9.43731 6.19477C9.56489 6.21423 9.87573 6.12845 9.92296 6.29208V8.11288C9.87573 8.27578 9.56489 8.19072 9.43731 8.21019C9.46903 8.69963 9.45845 8.71044 8.97986 8.678C8.96435 8.77603 9.01721 9.08094 8.94743 9.12996C8.90937 9.15735 8.08187 9.16239 8.01773 9.14077C7.90847 9.10401 7.97896 8.77964 7.95993 8.678C7.44468 8.72269 7.48204 8.66503 7.50248 8.17415C7.40309 8.15468 7.0852 8.22677 7.04996 8.11504V6.25388C7.0859 6.14215 7.40309 6.21423 7.50248 6.19477C7.47076 5.70533 7.48133 5.69452 7.95993 5.72695C7.97896 5.62532 7.90847 5.30023 8.01773 5.26419C8.08187 5.24256 8.90937 5.24761 8.94743 5.275C9.01721 5.32474 8.96435 5.62892 8.97986 5.72695Z" fill="black"/>
<path d="M12.182 1.03072C12.2116 0.932684 12.5486 0.991791 12.6395 0.976654C12.5324 0.223395 12.9102 0.591735 13.0991 0.456941C13.1829 0.397113 13.0807 0.0806716 13.1653 0.0208434C13.2041 -0.00654787 14.0443 -0.00798952 14.0845 0.0208434C14.1704 0.0821133 14.0647 0.430991 14.15 0.493703C14.2268 0.549927 14.3847 0.454778 14.4855 0.471357C14.666 0.501632 14.599 0.844023 14.6096 0.976654C14.6794 0.989629 15.0092 0.957913 15.0304 0.978096C15.1135 1.06099 15.0466 2.62157 15.0621 2.86016C15.0318 2.95387 14.7153 2.91567 14.611 2.95675L14.5736 3.4224H14.1514C14.1514 3.50314 14.1817 3.89022 14.0633 3.89022H13.1308V3.4224C12.6106 3.45556 12.6064 3.45052 12.6381 2.91855C12.6092 2.88972 12.1806 3.02667 12.1806 2.90053V1.03072H12.182Z" fill="black"/>
<path d="M3.80762 7.16648C3.75828 7.73953 3.83933 7.59753 4.30031 7.67034V9.0918C4.30031 9.18046 3.92251 9.13577 3.84286 9.14586L3.80762 9.61367H2.92795C3.05765 10.3777 2.57623 10.0166 2.46909 10.0966C2.39156 10.155 2.49024 10.5853 2.34715 10.5853H1.52035C1.53022 10.6899 1.49005 10.7872 1.4837 10.8895C1.47101 11.0921 1.50344 11.3184 1.48723 11.5037L0.621662 11.5498L0.504655 11.5152L0.499721 11.0524C0.396812 11.033 0.11064 11.0878 0.0401546 11.0366C-0.00566108 11.0034 -0.00848051 10.6358 0.0119603 10.5716C0.0479081 10.4599 0.365094 10.532 0.464479 10.5125C0.458135 10.426 0.475051 10.0663 0.532145 10.0238C0.597697 9.97553 0.860608 10.026 0.956469 10.008V9.07234C1.034 9.0745 1.37304 9.07666 1.4104 9.03269C1.4548 8.97935 1.34766 8.61533 1.47172 8.57353C1.66485 8.50865 2.1371 8.61101 2.36407 8.56848V7.68691C2.36407 7.59897 2.74258 7.64222 2.82152 7.63285C2.82998 7.55212 2.78769 7.16504 2.87438 7.16504H3.80691L3.80762 7.16648ZM2.82293 9.14586C2.42751 9.11558 2.40565 9.13793 2.43526 9.54231H2.82293V9.14586ZM1.41533 10.0815C0.984663 10.0404 1.00863 10.1067 1.02766 10.514H1.41533V10.0815Z" fill="black"/>
<path d="M6.11251 6.19479C6.20978 6.22579 6.14916 6.60133 6.16537 6.69864C6.26899 6.71955 6.61719 6.64386 6.65313 6.75775C6.62564 6.96679 6.71234 8.03793 6.64256 8.14029C6.58476 8.22535 6.28238 8.12948 6.1985 8.19003C6.08361 8.2722 6.28238 8.62973 6.06951 8.66865C5.93065 8.69388 4.83742 8.69749 4.75848 8.66C4.74156 8.65207 4.68729 8.59513 4.68729 8.58864V6.69937H5.17998V6.19551C5.41258 6.24164 5.91726 6.13352 6.11251 6.19551V6.19479Z" fill="black"/>
<path d="M15.4547 1.49854C15.4843 1.40051 15.8212 1.45962 15.9121 1.44448C15.9276 1.34501 15.8755 1.04226 15.9446 0.992528C15.9826 0.965136 16.8087 0.960091 16.8743 0.981715C16.9835 1.01848 16.913 1.34285 16.9321 1.44448C17.0279 1.46034 17.3254 1.40628 17.374 1.47764C17.4445 1.58144 17.3564 2.68358 17.3846 2.89622C17.3486 3.00795 17.0314 2.93586 16.9321 2.95533C16.9236 3.03606 16.9659 3.42314 16.8792 3.42314H15.5068C15.5033 3.42314 15.454 3.37268 15.454 3.36908V1.49782L15.4547 1.49854Z" fill="black"/>
</g>
<defs>
<clipPath id="clip0_25_1958">
<rect width="22" height="23" fill="white"/>
</clipPath>
</defs>
</svg>
