<svg width="16" height="17" viewBox="0 0 16 17" fill="none" xmlns="http://www.w3.org/2000/svg">
<g clip-path="url(#clip0_25_2328)">
<path d="M8.16667 1.20825V1.91626H8.83366V3.33325H9.49968V4.75024H10.1667V6.16626H14.8337V6.58325H14.1667V7.29126H13.4997V8.00024H12.8337V8.70825H12.1667V9.41626H11.4997V13.9583H12.1667V15.7913H11.8337V15.0833H10.4997V14.3752H9.16667V13.6663H6.83366V14.3752H5.49968V15.0833H4.16667V15.7913H3.83366V13.9583H4.49968V9.41626H3.83366V8.70825H3.16667V8.00024H2.49968V7.29126H1.83366V6.58325H1.16667V6.16626H5.83366V4.75024H6.49968V3.33325H7.16667V1.91626H7.83366V1.20825H8.16667Z" fill="#FFD100" stroke="black"/>
</g>
<defs>
<clipPath id="clip0_25_2328">
<rect width="16" height="17" fill="white"/>
</clipPath>
</defs>
</svg>
