<svg width="16" height="17" viewBox="0 0 16 17" fill="none" xmlns="http://www.w3.org/2000/svg">
<path d="M8.16666 1.20825V1.91626H8.83365V3.33325H9.49966V4.75024H10.1667V6.16626H14.8336V6.58325H14.1667V7.29126H13.4997V8.00024H12.8336V8.70825H12.1667V9.41626H11.4997V13.9583H12.1667V15.7913H11.8336V15.0833H10.4997V14.3752H9.16666V13.6663H6.83365V14.3752H5.49966V15.0833H4.16666V15.7913H3.83365V13.9583H4.49966V9.41626H3.83365V8.70825H3.16666V8.00024H2.49966V7.29126H1.83365V6.58325H1.16666V6.16626H5.83365V4.75024H6.49966V3.33325H7.16666V1.91626H7.83365V1.20825H8.16666Z" fill="#FFD100" stroke="black"/>
</svg>
