<svg width="18" height="18" viewBox="0 0 18 18" fill="none" xmlns="http://www.w3.org/2000/svg">
<g clip-path="url(#clip0_316_7109)">
<rect x="8.25" y="0.75" width="1.5" height="3" fill="#4A5565"/>
<rect width="1.5" height="3" transform="matrix(1 0 0 -1 8.25 17.25)" fill="#4A5565"/>
<rect x="6.75" y="3.75" width="1.5" height="3" fill="#4A5565"/>
<rect width="1.5" height="3" transform="matrix(1 0 0 -1 6.75 14.25)" fill="#4A5565"/>
<rect x="9.75" y="3.75" width="1.5" height="3" fill="#4A5565"/>
<rect width="1.5" height="3" transform="matrix(1 0 0 -1 9.75 14.25)" fill="#4A5565"/>
<rect x="3.75" y="6.75" width="3" height="1.5" fill="#4A5565"/>
<rect width="3" height="1.5" transform="matrix(-1 0 0 1 14.25 6.75)" fill="#4A5565"/>
<rect x="0.75" y="8.25" width="3" height="1.5" fill="#4A5565"/>
<rect width="3" height="1.5" transform="matrix(-1 0 0 1 17.25 8.25)" fill="#4A5565"/>
<rect x="3.75" y="9.75" width="3" height="1.5" fill="#4A5565"/>
<rect width="3" height="1.5" transform="matrix(-1 0 0 1 14.25 9.75)" fill="#4A5565"/>
<rect x="14.25" y="0.75" width="1.5" height="4.5" fill="#4A5565"/>
<rect x="12.75" y="2.25" width="4.5" height="1.5" fill="#4A5565"/>
<rect x="2.25" y="12.75" width="1.5" height="1.5" fill="#4A5565"/>
<rect x="0.75" y="14.25" width="1.5" height="1.5" fill="#4A5565"/>
<rect x="2.25" y="15.75" width="1.5" height="1.5" fill="#4A5565"/>
<rect x="3.75" y="14.25" width="1.5" height="1.5" fill="#4A5565"/>
</g>
<defs>
<clipPath id="clip0_316_7109">
<rect width="18" height="18" fill="white"/>
</clipPath>
</defs>
</svg>
