<svg width="16" height="17" viewBox="0 0 16 17" fill="none" xmlns="http://www.w3.org/2000/svg">
<path d="M8.16663 1.20825V1.91626H8.83362V3.33325H9.49963V4.75024H10.1666V6.16626H14.8336V6.58325H14.1666V7.29126H13.4996V8.00024H12.8336V8.70825H12.1666V9.41626H11.4996V13.9583H12.1666V15.7913H11.8336V15.0833H10.4996V14.3752H9.16663V13.6663H6.83362V14.3752H5.49963V15.0833H4.16663V15.7913H3.83362V13.9583H4.49963V9.41626H3.83362V8.70825H3.16663V8.00024H2.49963V7.29126H1.83362V6.58325H1.16663V6.16626H5.83362V4.75024H6.49963V3.33325H7.16663V1.91626H7.83362V1.20825H8.16663Z" fill="#FFD100" stroke="black"/>
</svg>
