<svg width="13" height="14" viewBox="0 0 13 14" fill="none" xmlns="http://www.w3.org/2000/svg">
<g clip-path="url(#clip0_24_581)">
<path d="M6.47485 0.95813V1.51965H7.00317V2.6427H7.53247V3.76575H8.06079V4.88879H11.76V5.21985H11.2317V5.78137H10.7034V6.3429H10.175V6.90442H9.64575V7.46594H9.11743V11.0665H9.64575V12.5206H9.38208V11.9591H8.32446V11.3976H7.26782V10.8351H5.41821V11.3976H4.3606V11.9591H3.30396V12.5206H3.03931V11.0665H3.56763V7.46594H3.03931V6.90442H2.51099V6.3429H1.98169V5.78137H1.45337V5.21985H0.925049V4.88879H4.62524V3.76575H5.15356V2.6427H5.68188V1.51965H6.21021V0.95813H6.47485Z" fill="#FFD100" stroke="black" stroke-width="0.79284"/>
</g>
<defs>
<clipPath id="clip0_24_581">
<rect width="12.6854" height="13.4783" fill="white"/>
</clipPath>
</defs>
</svg>
