<svg width="35" height="36" viewBox="0 0 35 36" fill="none" xmlns="http://www.w3.org/2000/svg">
<g filter="url(#filter0_d_25_2730)">
<path d="M17.7083 15.7084H18.9167V16.9167H20.125V18.125H21.3333V19.3334H20.125V20.5417H18.9167V19.3334H17.7083V18.125H16.5V16.9167H14.0833V18.125H12.875V19.3334H11.6667V20.5417H10.4583V19.3334H9.25V18.125H10.4583V16.9167H11.6667V15.7084H12.875V13.2917H11.6667V12.0834H10.4583V10.875H9.25V9.66671H10.4583V8.45837H11.6667V9.66671H12.875V10.875H14.0833V12.0834H16.5V10.875H17.7083V9.66671H18.9167V8.45837H20.125V9.66671H21.3333V10.875H20.125V12.0834H18.9167V13.2917H17.7083V15.7084Z" fill="white"/>
<path d="M27.375 10.875V8.45837H26.1667V6.04171H24.9583V4.83337H23.75V3.62504H21.3333V2.41671H18.9167V1.20837H11.6667V2.41671H9.25V3.62504H6.83333V4.83337H5.625V6.04171H4.41667V8.45837H3.20833V10.875H2V18.125H3.20833V20.5417H4.41667V22.9584H5.625V24.1667H6.83333V25.375H9.25V26.5834H11.6667V27.7917H18.9167V26.5834H21.3333V25.375H23.75V24.1667H24.9583V22.9584H26.1667V20.5417H27.375V18.125H28.5833V10.875H27.375ZM26.1667 18.125H24.9583V20.5417H23.75V22.9584H21.3333V24.1667H18.9167V25.375H11.6667V24.1667H9.25V22.9584H6.83333V20.5417H5.625V18.125H4.41667V10.875H5.625V8.45837H6.83333V6.04171H9.25V4.83337H11.6667V3.62504H18.9167V4.83337H21.3333V6.04171H23.75V8.45837H24.9583V10.875H26.1667V18.125Z" fill="white"/>
</g>
<defs>
<filter id="filter0_d_25_2730" x="-1.20837" y="0" width="37" height="37" filterUnits="userSpaceOnUse" color-interpolation-filters="sRGB">
<feFlood flood-opacity="0" result="BackgroundImageFix"/>
<feColorMatrix in="SourceAlpha" type="matrix" values="0 0 0 0 0 0 0 0 0 0 0 0 0 0 0 0 0 0 127 0" result="hardAlpha"/>
<feOffset dx="2" dy="4"/>
<feGaussianBlur stdDeviation="2"/>
<feComposite in2="hardAlpha" operator="out"/>
<feColorMatrix type="matrix" values="0 0 0 0 0 0 0 0 0 0 0 0 0 0 0 0 0 0 1 0"/>
<feBlend mode="normal" in2="BackgroundImageFix" result="effect1_dropShadow_25_2730"/>
<feBlend mode="normal" in="SourceGraphic" in2="effect1_dropShadow_25_2730" result="shape"/>
</filter>
</defs>
</svg>
