<svg width="16" height="17" viewBox="0 0 16 17" fill="none" xmlns="http://www.w3.org/2000/svg">
<path d="M8.16663 1.20833V1.91634H8.83362V3.33333H9.49963V4.75032H10.1666V6.16634H14.8336V6.58333H14.1666V7.29134H13.4996V8.00032H12.8336V8.70833H12.1666V9.41634H11.4996V13.9583H12.1666V15.7913H11.8336V15.0833H10.4996V14.3753H9.16663V13.6663H6.83362V14.3753H5.49963V15.0833H4.16663V15.7913H3.83362V13.9583H4.49963V9.41634H3.83362V8.70833H3.16663V8.00032H2.49963V7.29134H1.83362V6.58333H1.16663V6.16634H5.83362V4.75032H6.49963V3.33333H7.16663V1.91634H7.83362V1.20833H8.16663Z" fill="#FFD100" stroke="black"/>
</svg>
