<svg width="16" height="16" viewBox="0 0 16 16" fill="none" xmlns="http://www.w3.org/2000/svg">
<path d="M8.94592 8.16747V8.82482H9.6155V11.4629H10.2851V8.82482H13.6418V12.7776H14.3158V5.52942H13.6418V8.16747H8.94592Z" fill="#000001"/>
<path d="M13.6419 12.7777H12.9723V13.4394H13.6419V12.7777Z" fill="#000001"/>
<path d="M13.6419 4.87219H12.9723V5.52954H13.6419V4.87219Z" fill="#000001"/>
<path d="M12.9724 6.1911H12.3029V6.84845H12.9724V6.1911Z" fill="#000001"/>
<path d="M12.9721 13.4394H2.23242V14.0967H12.9721V13.4394Z" fill="#000001"/>
<path d="M12.3026 6.84851H10.285V7.50586H12.3026V6.84851Z" fill="#000001"/>
<path d="M12.3026 5.52942H10.285V6.19109H12.3026V5.52942Z" fill="#000001"/>
<path d="M10.2851 6.1911H9.61554V6.84845H10.2851V6.1911Z" fill="#000001"/>
<path d="M9.6155 11.4631H8.94592V12.1204H9.6155V11.4631Z" fill="#000001"/>
<path d="M12.9722 4.21051H8.27191V4.87218H12.9722V4.21051Z" fill="#000001"/>
<path d="M6.93277 11.4631H8.27193V10.8014H8.94592V9.48236H8.27193V10.144H7.60235V9.48236H8.27193V8.82501H6.93277V9.48236H6.25879V10.8014H6.93277V11.4631Z" fill="#000001"/>
<path d="M8.94592 7.50574H6.25879V8.16741H8.94592V7.50574Z" fill="#000001"/>
<path d="M8.94592 12.1203H6.25879V12.7776H8.94592V12.1203Z" fill="#000001"/>
<path d="M8.27206 4.87219H7.60248V5.52954H8.27206V4.87219Z" fill="#000001"/>
<path d="M6.25894 11.4631H5.58936V12.1204H6.25894V11.4631Z" fill="#000001"/>
<path d="M6.25869 4.21051H4.24554V4.87218H6.25869V4.21051Z" fill="#000001"/>
<path d="M4.24566 6.84851H2.9021V7.50586H4.24566V6.84851Z" fill="#000001"/>
<path d="M7.60228 6.19122V5.52954H6.9327V4.87219H6.25871V5.52954H4.24557V4.87219H3.57599V5.52954H2.23242V6.19122H7.60228Z" fill="#000001"/>
<path d="M2.23258 12.7777H1.55859V13.4394H2.23258V12.7777Z" fill="#000001"/>
<path d="M2.23258 6.1911H1.55859V6.84845H2.23258V6.1911Z" fill="#000001"/>
<path d="M1.55856 8.82489H4.91527V11.4629H5.58925V8.82489H6.25883V8.16754H1.55856V6.84851H0.888977V12.7776H1.55856V8.82489Z" fill="#000001"/>
<path d="M8.94592 8.16747V8.82482H9.6155V11.4629H10.2851V8.82482H13.6418V12.7776H14.3158V5.52942H13.6418V8.16747H8.94592Z" fill="#000001"/>
<path d="M13.6419 12.7777H12.9723V13.4394H13.6419V12.7777Z" fill="#000001"/>
<path d="M13.6419 4.87219H12.9723V5.52954H13.6419V4.87219Z" fill="#000001"/>
<path d="M12.9724 6.1911H12.3029V6.84845H12.9724V6.1911Z" fill="#000001"/>
<path d="M12.9721 13.4394H2.23242V14.0967H12.9721V13.4394Z" fill="#000001"/>
<path d="M12.3026 6.84851H10.285V7.50586H12.3026V6.84851Z" fill="#000001"/>
<path d="M12.3026 5.52942H10.285V6.19109H12.3026V5.52942Z" fill="#000001"/>
<path d="M10.2851 6.1911H9.61554V6.84845H10.2851V6.1911Z" fill="#000001"/>
<path d="M9.6155 11.4631H8.94592V12.1204H9.6155V11.4631Z" fill="#000001"/>
<path d="M12.9722 4.21051H8.27191V4.87218H12.9722V4.21051Z" fill="#000001"/>
<path d="M6.93277 11.4631H8.27193V10.8014H8.94592V9.48236H8.27193V10.144H7.60235V9.48236H8.27193V8.82501H6.93277V9.48236H6.25879V10.8014H6.93277V11.4631Z" fill="#000001"/>
<path d="M8.94592 7.50574H6.25879V8.16741H8.94592V7.50574Z" fill="#000001"/>
<path d="M8.94592 12.1203H6.25879V12.7776H8.94592V12.1203Z" fill="#000001"/>
<path d="M8.27206 4.87219H7.60248V5.52954H8.27206V4.87219Z" fill="#000001"/>
<path d="M6.25894 11.4631H5.58936V12.1204H6.25894V11.4631Z" fill="#000001"/>
<path d="M6.25869 4.21051H4.24554V4.87218H6.25869V4.21051Z" fill="#000001"/>
<path d="M4.24566 6.84851H2.9021V7.50586H4.24566V6.84851Z" fill="#000001"/>
<path d="M7.60228 6.19122V5.52954H6.9327V4.87219H6.25871V5.52954H4.24557V4.87219H3.57599V5.52954H2.23242V6.19122H7.60228Z" fill="#000001"/>
<path d="M2.23258 12.7777H1.55859V13.4394H2.23258V12.7777Z" fill="#000001"/>
<path d="M2.23258 6.1911H1.55859V6.84845H2.23258V6.1911Z" fill="#000001"/>
<path d="M1.55856 8.82489H4.91527V11.4629H5.58925V8.82489H6.25883V8.16754H1.55856V6.84851H0.888977V12.7776H1.55856V8.82489Z" fill="#000001"/>
</svg>
