<svg width="22" height="23" viewBox="0 0 22 23" fill="none" xmlns="http://www.w3.org/2000/svg">
<g clip-path="url(#clip0_0_296)">
<path d="M22 5.79903C21.9359 5.80912 21.6264 5.78461 21.6131 5.79903C21.5799 5.83363 21.6758 6.22143 21.5553 6.2618C21.3494 6.331 20.8349 6.22071 20.5924 6.26684V5.38528C20.5924 5.38167 20.5431 5.33121 20.5396 5.33121H19.6775C19.6091 5.22597 19.7001 4.94918 19.6627 4.89728C19.6028 4.81294 19.1848 4.9189 19.1848 4.80934V3.89173C18.566 3.79154 18.9127 4.15411 18.7661 4.34513C18.7147 4.41144 18.3608 4.42082 18.303 4.37973C18.217 4.31846 18.3228 3.96886 18.2368 3.90759C18.1508 3.84632 17.8505 3.94363 17.7927 3.85785C17.7244 3.75694 17.8075 2.68435 17.7843 2.47748C17.8188 2.30376 18.2008 2.41549 18.2347 2.38017C18.253 2.36143 18.186 1.91235 18.3228 1.91235H19.2553V2.38017C19.3547 2.39963 19.6719 2.32755 19.7078 2.43927C19.7769 2.65552 19.6317 3.12982 19.8009 3.35184H20.6629C20.6319 3.84055 20.6418 3.85209 21.1204 3.81965L21.1549 4.756C21.2994 4.77402 21.5757 4.68175 21.6116 4.88286C21.6723 5.22021 21.4728 5.29662 21.9993 5.25985V5.79975L22 5.79903ZM19.6387 3.42752L19.2553 3.42392V3.82037H19.6423C19.6338 3.68414 19.6881 3.56015 19.6387 3.42824V3.42752ZM21.0499 4.8634H20.6622C20.6862 5.02919 20.5776 5.23462 20.7841 5.26129C21.133 5.30671 21.0442 5.14236 21.0499 4.8634Z" fill="black"/>
<path d="M8.03041 9.5415V10.0454C8.50689 9.91849 8.5654 10.0439 8.52311 10.5132H8.98126V10.981H9.43871V13.4282H8.98126V14.3458C8.98126 14.4359 8.57104 14.389 8.48857 14.3998V14.8684H8.03112V15.786C8.03112 15.8739 7.65261 15.8307 7.57366 15.8401C7.61948 16.0995 7.50811 17.5232 7.58917 17.6421C7.6378 17.7135 7.93385 17.6601 8.03112 17.676V18.6477H8.48857C8.50619 18.7478 8.45614 19.0117 8.50407 19.0816C8.56399 19.1695 8.90584 19.0614 8.96576 19.1493C9.01369 19.2193 8.96294 19.4831 8.98126 19.584C9.06021 19.5927 9.43871 19.5494 9.43871 19.6381V22.0312L8.98126 22.0672C9.02496 22.5942 8.96858 22.556 8.48857 22.535V23.0029H5.69099C5.605 23.0029 5.64729 22.6158 5.63812 22.535H5.17997V22.0672C5.07988 22.0499 4.75212 22.1062 4.70278 22.0341L4.68727 21.0963C4.60833 21.0876 4.22982 21.1309 4.22982 21.0422V19.189C4.11986 19.1645 3.73713 19.2611 3.73713 19.0989V17.7495C3.25853 17.7819 3.24795 17.7704 3.27967 17.2817C3.18381 17.2658 2.88566 17.3192 2.83773 17.2485C2.76583 17.1433 2.87861 16.4499 2.80671 16.3446C2.74398 16.2516 2.41129 16.3821 2.3697 16.2516L2.35983 14.9304C2.31543 14.7913 1.92141 14.952 1.87701 14.8122L1.87207 11.5785C1.87066 11.4257 2.34221 11.4755 2.36477 11.4531C2.326 10.9997 2.37816 10.9457 2.82222 10.9853V10.5168H3.27967C3.30364 10.4923 3.25007 10.111 3.28461 10.054C3.33747 9.96607 4.50824 10.036 4.68727 10.0129C4.69573 9.93219 4.65344 9.54511 4.74014 9.54511H8.03041V9.5415Z" fill="black"/>
<path d="M13.5896 9.2C13.56 9.10197 13.2231 9.16108 13.1322 9.14594V8.20959C12.9856 8.18725 12.679 8.29032 12.6409 8.08273V5.81646C12.6473 5.64202 13.0582 5.76745 13.0977 5.72708L13.1322 4.79073L14.0478 4.75541C14.0866 4.71721 13.9653 4.29409 14.1352 4.2876H17.3021C17.4875 4.31931 17.3197 4.69847 17.4241 4.77559L18.702 4.76262C18.8613 4.81091 18.7781 5.1288 18.7971 5.25927C18.8761 5.26792 19.2546 5.22467 19.2546 5.31333V6.19489C19.3385 6.19922 19.6697 6.17543 19.7071 6.23598C19.7416 6.29293 19.6923 6.6036 19.712 6.69875C19.7536 6.74128 20.1949 6.61081 20.2047 6.78813L20.1998 9.55393C20.1638 9.66709 19.8156 9.59213 19.712 9.61303V10.5847H19.2546V11.5203C19.1587 11.5362 18.8613 11.4828 18.8126 11.5542C18.7407 11.6594 18.8535 12.3529 18.7816 12.4581C18.733 12.5295 18.4355 12.4754 18.3397 12.4913C18.2903 12.5417 18.4088 13.7664 18.3087 13.9099C18.2713 13.9639 17.9654 13.9142 17.8822 13.9308V15.2801C17.8822 15.4063 17.4727 15.3666 17.3895 15.3702C17.3564 15.4041 17.4353 16.1833 17.374 16.2727C17.3127 16.3621 17.0061 16.254 16.9476 16.3405C16.8933 16.4205 16.9666 16.7052 16.9271 16.7694C16.8701 16.8623 16.5458 16.7585 16.4901 16.8061C16.3752 16.9049 16.4944 17.2004 16.4063 17.2624C16.3372 17.3114 16.0799 17.2595 15.9819 17.2783V17.7461H13.6418C13.5558 17.7461 13.5981 17.359 13.5889 17.2783C13.1103 17.3107 13.0998 17.2999 13.1315 16.8104C13.0039 16.791 12.6931 16.8768 12.6458 16.7131L12.6388 14.4173C12.6458 14.2429 13.0568 14.3683 13.0962 14.3279C13.1075 14.2162 13.0582 13.9221 13.1555 13.8572C13.2647 13.7837 13.5029 13.9293 13.5734 13.8262C13.7123 13.6237 13.3155 13.2496 14.0464 13.3563V12.4747C14.0464 12.3291 14.5038 12.4098 14.5038 12.3846V10.5854C14.0252 10.6179 14.0147 10.6063 14.0464 10.1176C13.892 10.1176 13.737 10.1335 13.5889 10.0816C13.5474 9.86028 13.6453 9.38597 13.5889 9.2H13.5896Z" fill="black"/>
<path d="M8.97983 5.72695C9.45842 5.69452 9.469 5.70533 9.43728 6.19477C9.56486 6.21423 9.8757 6.12845 9.92292 6.29208V8.11288C9.8757 8.27578 9.56486 8.19072 9.43728 8.21019C9.469 8.69963 9.45842 8.71044 8.97983 8.678C8.96432 8.77603 9.01718 9.08094 8.9474 9.12996C8.90934 9.15735 8.08184 9.16239 8.0177 9.14077C7.90844 9.10401 7.97893 8.77964 7.9599 8.678C7.44465 8.72269 7.482 8.66503 7.50245 8.17415C7.40306 8.15468 7.08517 8.22677 7.04993 8.11504V6.25388C7.08587 6.14215 7.40306 6.21423 7.50245 6.19477C7.47073 5.70533 7.4813 5.69452 7.9599 5.72695C7.97893 5.62532 7.90844 5.30023 8.0177 5.26419C8.08184 5.24256 8.90934 5.24761 8.9474 5.275C9.01718 5.32474 8.96432 5.62892 8.97983 5.72695Z" fill="black"/>
<path d="M12.182 1.03072C12.2116 0.932684 12.5485 0.991791 12.6394 0.976654C12.5323 0.223395 12.9101 0.591735 13.099 0.456941C13.1828 0.397113 13.0806 0.0806716 13.1652 0.0208434C13.204 -0.00654787 14.0442 -0.00798952 14.0844 0.0208434C14.1704 0.0821133 14.0646 0.430991 14.1499 0.493703C14.2267 0.549927 14.3846 0.454778 14.4854 0.471357C14.6659 0.501632 14.5989 0.844023 14.6095 0.976654C14.6793 0.989629 15.0091 0.957913 15.0303 0.978096C15.1135 1.06099 15.0465 2.62157 15.062 2.86016C15.0317 2.95387 14.7152 2.91567 14.6109 2.95675L14.5735 3.4224H14.1513C14.1513 3.50314 14.1816 3.89022 14.0632 3.89022H13.1307V3.4224C12.6105 3.45556 12.6063 3.45052 12.638 2.91855C12.6091 2.88972 12.1805 3.02667 12.1805 2.90053V1.03072H12.182Z" fill="black"/>
<path d="M3.80755 7.16648C3.75821 7.73953 3.83927 7.59753 4.30025 7.67034V9.0918C4.30025 9.18046 3.92245 9.13577 3.8428 9.14586L3.80755 9.61367H2.92789C3.05759 10.3777 2.57617 10.0166 2.46903 10.0966C2.3915 10.155 2.49018 10.5853 2.34709 10.5853H1.52029C1.53016 10.6899 1.48998 10.7872 1.48364 10.8895C1.47095 11.0921 1.50338 11.3184 1.48717 11.5037L0.621601 11.5498L0.504594 11.5152L0.49966 11.0524C0.396751 11.033 0.110579 11.0878 0.0400936 11.0366C-0.00572212 11.0034 -0.00854155 10.6358 0.0118993 10.5716C0.047847 10.4599 0.365033 10.532 0.464418 10.5125C0.458074 10.426 0.47499 10.0663 0.532084 10.0238C0.597636 9.97553 0.860547 10.026 0.956408 10.008V9.07234C1.03394 9.0745 1.37298 9.07666 1.41034 9.03269C1.45474 8.97935 1.3476 8.61533 1.47166 8.57353C1.66479 8.50865 2.13704 8.61101 2.36401 8.56848V7.68691C2.36401 7.59897 2.74252 7.64222 2.82146 7.63285C2.82992 7.55212 2.78763 7.16504 2.87432 7.16504H3.80685L3.80755 7.16648ZM2.82287 9.14586C2.42744 9.11558 2.40559 9.13793 2.4352 9.54231H2.82287V9.14586ZM1.41527 10.0815C0.984602 10.0404 1.00857 10.1067 1.0276 10.514H1.41527V10.0815Z" fill="black"/>
<path d="M6.11248 6.19479C6.20975 6.22579 6.14913 6.60133 6.16534 6.69864C6.26896 6.71955 6.61715 6.64386 6.6531 6.75775C6.62561 6.96679 6.71231 8.03793 6.64253 8.14029C6.58473 8.22535 6.28235 8.12948 6.19847 8.19003C6.08358 8.2722 6.28235 8.62973 6.06948 8.66865C5.93062 8.69388 4.83739 8.69749 4.75845 8.66C4.74153 8.65207 4.68726 8.59513 4.68726 8.58864V6.69937H5.17995V6.19551C5.41255 6.24164 5.91723 6.13352 6.11248 6.19551V6.19479Z" fill="black"/>
<path d="M15.4547 1.49854C15.4843 1.40051 15.8212 1.45962 15.9121 1.44448C15.9276 1.34501 15.8755 1.04226 15.9446 0.992528C15.9826 0.965136 16.8087 0.960091 16.8743 0.981715C16.9835 1.01848 16.913 1.34285 16.9321 1.44448C17.0279 1.46034 17.3254 1.40628 17.374 1.47764C17.4445 1.58144 17.3564 2.68358 17.3846 2.89622C17.3486 3.00795 17.0314 2.93586 16.9321 2.95533C16.9236 3.03606 16.9659 3.42314 16.8792 3.42314H15.5068C15.5033 3.42314 15.454 3.37268 15.454 3.36908V1.49782L15.4547 1.49854Z" fill="black"/>
</g>
<defs>
<clipPath id="clip0_0_296">
<rect width="22" height="23" fill="white"/>
</clipPath>
</defs>
</svg>
