<svg width="24" height="25" viewBox="0 0 24 25" fill="none" xmlns="http://www.w3.org/2000/svg">
<g clip-path="url(#clip0_3_712)">
<path d="M24 9.52344H22.8525V15.4766H24V9.52344Z" fill="#000001"/>
<path d="M22.8525 15.4766H21.7125V17.8594H22.8525V15.4766Z" fill="#000001"/>
<path d="M22.8525 7.14062H21.7125V9.52344H22.8525V7.14062Z" fill="#000001"/>
<path d="M21.7125 17.8594H20.5725V20.2344H21.7125V17.8594Z" fill="#000001"/>
<path d="M21.7125 4.75781H20.5725V7.14063H21.7125V4.75781Z" fill="#000001"/>
<path d="M20.5725 20.2344H19.425V21.4297H20.5725V20.2344Z" fill="#000001"/>
<path d="M20.5725 3.57031H19.425V4.75781H20.5725V3.57031Z" fill="#000001"/>
<path d="M18.285 10.7109H14.8575V9.52344H13.71V11.9062H18.285V13.0938H13.71V14.2891H18.285V15.4766H19.425V9.52344H18.285V10.7109Z" fill="#000001"/>
<path d="M19.425 21.4297H17.1375V22.6172H19.425V21.4297Z" fill="#000001"/>
<path d="M19.425 2.38281H17.1375V3.57031H19.425V2.38281Z" fill="#000001"/>
<path d="M13.71 15.4766V17.8594H9.14246V19.0469H17.1375V17.8594H14.8575V16.6641H17.1375V17.8594H18.285V15.4766H13.71Z" fill="#000001"/>
<path d="M17.1375 22.6172H14.8575V23.8125H17.1375V22.6172Z" fill="#000001"/>
<path d="M18.285 8.33594H14.8575V9.52344H18.285V8.33594Z" fill="#000001"/>
<path d="M15.9975 4.75781H14.8575V7.14063H15.9975V4.75781Z" fill="#000001"/>
<path d="M17.1375 1.1875H14.8575V2.38281H17.1375V1.1875Z" fill="#000001"/>
<path d="M14.8575 7.14062H13.71V8.33594H14.8575V7.14062Z" fill="#000001"/>
<path d="M14.8574 3.57031H12.5699V4.75781H14.8574V3.57031Z" fill="#000001"/>
<path d="M14.8575 23.8125H9.14246V25H14.8575V23.8125Z" fill="#000001"/>
<path d="M13.7099 14.2891H12.5699V15.4766H13.7099V14.2891Z" fill="#000001"/>
<path d="M13.7099 11.9062H12.5699V13.0938H13.7099V11.9062Z" fill="#000001"/>
<path d="M13.7099 8.33594H12.5699V9.52344H13.7099V8.33594Z" fill="#000001"/>
<path d="M12.57 4.75781H11.4225V5.95312H12.57V4.75781Z" fill="#000001"/>
<path d="M11.4225 5.95312H10.2825V7.14063H11.4225V5.95312Z" fill="#000001"/>
<path d="M14.8575 0H9.14246V1.1875H14.8575V0Z" fill="#000001"/>
<path d="M10.2825 7.14062H9.14246V8.33594H10.2825V7.14062Z" fill="#000001"/>
<path d="M9.14248 22.6172H6.85498V23.8125H9.14248V22.6172Z" fill="#000001"/>
<path d="M7.995 16.6641V9.52344H9.1425V8.33594H7.995V7.14062H4.5675V19.0469H7.995V17.8594H9.1425V16.6641H7.995ZM6.85501 16.6641H5.715V14.2891H6.85501V16.6641Z" fill="#000001"/>
<path d="M9.14248 1.1875H6.85498V2.38281H9.14248V1.1875Z" fill="#000001"/>
<path d="M6.85501 21.4297H4.5675V22.6172H6.85501V21.4297Z" fill="#000001"/>
<path d="M6.85501 2.38281H4.5675V3.57031H6.85501V2.38281Z" fill="#000001"/>
<path d="M4.56749 20.2344H3.42749V21.4297H4.56749V20.2344Z" fill="#000001"/>
<path d="M4.56749 3.57031H3.42749V4.75781H4.56749V3.57031Z" fill="#000001"/>
<path d="M3.42753 17.8594H2.28003V20.2344H3.42753V17.8594Z" fill="#000001"/>
<path d="M3.42753 4.75781H2.28003V7.14063H3.42753V4.75781Z" fill="#000001"/>
<path d="M2.28001 15.4766H1.14001V17.8594H2.28001V15.4766Z" fill="#000001"/>
<path d="M2.28001 7.14062H1.14001V9.52344H2.28001V7.14062Z" fill="#000001"/>
<path d="M1.14 9.52344H0V15.4766H1.14V9.52344Z" fill="#000001"/>
</g>
<defs>
<clipPath id="clip0_3_712">
<rect width="24" height="25" fill="white"/>
</clipPath>
</defs>
</svg>
