<svg width="22" height="23" viewBox="0 0 22 23" fill="none" xmlns="http://www.w3.org/2000/svg">
<g clip-path="url(#clip0_226_5586)">
<path d="M22 5.79901C21.9359 5.8091 21.6264 5.7846 21.6131 5.79901C21.5799 5.83361 21.6758 6.22142 21.5553 6.26178C21.3494 6.33098 20.8349 6.22069 20.5924 6.26683V5.38526C20.5924 5.38166 20.5431 5.3312 20.5396 5.3312H19.6775C19.6091 5.22596 19.7001 4.94916 19.6627 4.89726C19.6028 4.81293 19.1848 4.91889 19.1848 4.80932V3.89172C18.566 3.79152 18.9127 4.1541 18.7661 4.34511C18.7147 4.41143 18.3608 4.4208 18.303 4.37971C18.217 4.31844 18.3228 3.96884 18.2368 3.90757C18.1508 3.8463 17.8505 3.94362 17.7927 3.85784C17.7244 3.75692 17.8075 2.68434 17.7843 2.47746C17.8188 2.30374 18.2008 2.41547 18.2347 2.38015C18.253 2.36141 18.186 1.91234 18.3228 1.91234H19.2553V2.38015C19.3547 2.39961 19.6719 2.32753 19.7078 2.43926C19.7769 2.65551 19.6317 3.12981 19.8009 3.35182H20.6629C20.6319 3.84054 20.6418 3.85207 21.1204 3.81963L21.1549 4.75598C21.2994 4.774 21.5757 4.68174 21.6116 4.88285C21.6723 5.22019 21.4728 5.2966 21.9993 5.25984V5.79973L22 5.79901ZM19.6387 3.42751L19.2553 3.4239V3.82036H19.6423C19.6338 3.68412 19.6881 3.56014 19.6387 3.42823V3.42751ZM21.0499 4.86339H20.6622C20.6862 5.02917 20.5776 5.23461 20.7841 5.26128C21.133 5.30669 21.0442 5.14234 21.0499 4.86339Z" fill="black"/>
<path d="M8.03041 9.54152V10.0454C8.50689 9.91851 8.5654 10.0439 8.52311 10.5132H8.98126V10.981H9.43871V13.4282H8.98126V14.3458C8.98126 14.4359 8.57104 14.3891 8.48857 14.3999V14.8684H8.03112V15.786C8.03112 15.8739 7.65261 15.8307 7.57366 15.8401C7.61948 16.0996 7.50811 17.5232 7.58917 17.6421C7.6378 17.7135 7.93385 17.6601 8.03112 17.676V18.6477H8.48857C8.50619 18.7479 8.45614 19.0117 8.50407 19.0816C8.56399 19.1695 8.90584 19.0614 8.96576 19.1494C9.01369 19.2193 8.96294 19.4831 8.98126 19.584C9.06021 19.5927 9.43871 19.5494 9.43871 19.6381V22.0312L8.98126 22.0673C9.02496 22.5942 8.96858 22.556 8.48857 22.5351V23.0029H5.69099C5.605 23.0029 5.64729 22.6158 5.63812 22.5351H5.17997V22.0673C5.07988 22.05 4.75212 22.1062 4.70278 22.0341L4.68727 21.0963C4.60833 21.0877 4.22982 21.1309 4.22982 21.0422V19.189C4.11986 19.1645 3.73713 19.2611 3.73713 19.0989V17.7495C3.25853 17.782 3.24795 17.7704 3.27967 17.2817C3.18381 17.2659 2.88566 17.3192 2.83773 17.2486C2.76583 17.1433 2.87861 16.4499 2.80671 16.3446C2.74398 16.2517 2.41129 16.3821 2.3697 16.2517L2.35983 14.9304C2.31543 14.7913 1.92141 14.952 1.87701 14.8122L1.87207 11.5786C1.87066 11.4257 2.34221 11.4755 2.36477 11.4531C2.326 10.9997 2.37816 10.9457 2.82222 10.9853V10.5168H3.27967C3.30364 10.4923 3.25007 10.111 3.28461 10.054C3.33747 9.96608 4.50824 10.036 4.68727 10.0129C4.69573 9.93221 4.65344 9.54512 4.74014 9.54512H8.03041V9.54152Z" fill="black"/>
<path d="M13.5896 9.19985C13.56 9.10182 13.2231 9.16092 13.1322 9.14579V8.20944C12.9856 8.18709 12.679 8.29017 12.6409 8.08257V5.81631C12.6473 5.64187 13.0582 5.76729 13.0977 5.72693L13.1322 4.79058L14.0478 4.75526C14.0866 4.71706 13.9653 4.29393 14.1352 4.28745H17.3021C17.4875 4.31916 17.3197 4.69831 17.4241 4.77544L18.702 4.76247C18.8613 4.81076 18.7781 5.12864 18.7971 5.25911C18.8761 5.26776 19.2546 5.22451 19.2546 5.31318V6.19474C19.3385 6.19907 19.6697 6.17528 19.7071 6.23583C19.7416 6.29277 19.6923 6.60345 19.712 6.6986C19.7536 6.74112 20.1949 6.61066 20.2047 6.78798L20.1998 9.55377C20.1638 9.66694 19.8156 9.59198 19.712 9.61288V10.5845H19.2546V11.5202C19.1587 11.536 18.8613 11.4827 18.8126 11.5541C18.7407 11.6593 18.8535 12.3527 18.7816 12.458C18.733 12.5293 18.4355 12.4753 18.3397 12.4911C18.2903 12.5416 18.4088 13.7663 18.3087 13.9097C18.2713 13.9638 17.9654 13.914 17.8822 13.9306V15.28C17.8822 15.4061 17.4727 15.3665 17.3895 15.3701C17.3564 15.404 17.4353 16.1832 17.374 16.2726C17.3127 16.3619 17.0061 16.2538 16.9476 16.3403C16.8933 16.4203 16.9666 16.7051 16.9271 16.7692C16.8701 16.8622 16.5458 16.7584 16.4901 16.806C16.3752 16.9047 16.4944 17.2003 16.4063 17.2622C16.3372 17.3113 16.0799 17.2594 15.9819 17.2781V17.7459H13.6418C13.5558 17.7459 13.5981 17.3588 13.5889 17.2781C13.1103 17.3105 13.0998 17.2997 13.1315 16.8103C13.0039 16.7908 12.6931 16.8766 12.6458 16.713L12.6388 14.4172C12.6458 14.2427 13.0568 14.3681 13.0962 14.3278C13.1075 14.2161 13.0582 13.922 13.1555 13.8571C13.2647 13.7836 13.5029 13.9292 13.5734 13.8261C13.7123 13.6235 13.3155 13.2494 14.0464 13.3561V12.4745C14.0464 12.3289 14.5038 12.4097 14.5038 12.3844V10.5853C14.0252 10.6177 14.0147 10.6062 14.0464 10.1175C13.892 10.1175 13.737 10.1333 13.5889 10.0814C13.5474 9.86012 13.6453 9.38582 13.5889 9.19985H13.5896Z" fill="black"/>
<path d="M8.97983 5.72694C9.45842 5.6945 9.469 5.70531 9.43728 6.19475C9.56486 6.21421 9.8757 6.12844 9.92292 6.29206V8.11286C9.8757 8.27577 9.56486 8.19071 9.43728 8.21017C9.469 8.69961 9.45842 8.71042 8.97983 8.67799C8.96432 8.77602 9.01718 9.08093 8.9474 9.12994C8.90934 9.15733 8.08184 9.16238 8.0177 9.14075C7.90844 9.10399 7.97893 8.77962 7.9599 8.67799C7.44465 8.72268 7.482 8.66501 7.50245 8.17413C7.40306 8.15467 7.08517 8.22675 7.04993 8.11502V6.25386C7.08587 6.14213 7.40306 6.21421 7.50245 6.19475C7.47073 5.70531 7.4813 5.6945 7.9599 5.72694C7.97893 5.6253 7.90844 5.30021 8.0177 5.26417C8.08184 5.24255 8.90934 5.24759 8.9474 5.27498C9.01718 5.32472 8.96432 5.62891 8.97983 5.72694Z" fill="black"/>
<path d="M12.182 1.03078C12.2116 0.932745 12.5485 0.991852 12.6394 0.976715C12.5323 0.223456 12.9101 0.591796 13.099 0.457002C13.1828 0.397174 13.0806 0.0807327 13.1652 0.0209044C13.204 -0.00648684 14.0442 -0.00792848 14.0844 0.0209044C14.1704 0.0821743 14.0646 0.431052 14.1499 0.493764C14.2267 0.549988 14.3846 0.45484 14.4854 0.471418C14.6659 0.501693 14.5989 0.844084 14.6095 0.976715C14.6793 0.98969 15.0091 0.957974 15.0303 0.978157C15.1135 1.06105 15.0465 2.62163 15.062 2.86022C15.0317 2.95393 14.7152 2.91573 14.6109 2.95681L14.5735 3.42247H14.1513C14.1513 3.5032 14.1816 3.89028 14.0632 3.89028H13.1307V3.42247C12.6105 3.45562 12.6063 3.45058 12.638 2.91861C12.6091 2.88978 12.1805 3.02673 12.1805 2.90059V1.03078H12.182Z" fill="black"/>
<path d="M3.80755 7.16642C3.75821 7.73947 3.83927 7.59747 4.30025 7.67027V9.09174C4.30025 9.1804 3.92245 9.13571 3.8428 9.1458L3.80755 9.61361H2.92789C3.05759 10.3777 2.57617 10.0166 2.46903 10.0966C2.3915 10.1549 2.49018 10.5853 2.34709 10.5853H1.52029C1.53016 10.6898 1.48998 10.7871 1.48364 10.8895C1.47095 11.092 1.50338 11.3184 1.48717 11.5036L0.621601 11.5497L0.504594 11.5151L0.49966 11.0524C0.396751 11.0329 0.110579 11.0877 0.0400936 11.0365C-0.00572212 11.0034 -0.00854155 10.6357 0.0118993 10.5716C0.047847 10.4599 0.365033 10.5319 0.464418 10.5125C0.458074 10.426 0.47499 10.0663 0.532084 10.0238C0.597636 9.97546 0.860547 10.0259 0.956408 10.0079V9.07227C1.03394 9.07444 1.37298 9.0766 1.41034 9.03263C1.45474 8.97929 1.3476 8.61527 1.47166 8.57347C1.66479 8.50859 2.13704 8.61095 2.36401 8.56842V7.68685C2.36401 7.59891 2.74252 7.64216 2.82146 7.63279C2.82992 7.55206 2.78763 7.16498 2.87432 7.16498H3.80685L3.80755 7.16642ZM2.82287 9.1458C2.42744 9.11552 2.40559 9.13787 2.4352 9.54225H2.82287V9.1458ZM1.41527 10.0814C0.984602 10.0403 1.00857 10.1067 1.0276 10.5139H1.41527V10.0814Z" fill="black"/>
<path d="M6.11248 6.19474C6.20975 6.22574 6.14913 6.60129 6.16534 6.6986C6.26896 6.7195 6.61715 6.64382 6.6531 6.75771C6.62561 6.96675 6.71231 8.03789 6.64253 8.14024C6.58473 8.2253 6.28235 8.12943 6.19847 8.18998C6.08358 8.27215 6.28235 8.62968 6.06948 8.66861C5.93062 8.69384 4.83739 8.69744 4.75845 8.65996C4.74153 8.65203 4.68726 8.59508 4.68726 8.5886V6.69932H5.17995V6.19546C5.41255 6.2416 5.91723 6.13347 6.11248 6.19546V6.19474Z" fill="black"/>
<path d="M15.4547 1.49859C15.4843 1.40056 15.8212 1.45967 15.9121 1.44453C15.9276 1.34506 15.8755 1.04231 15.9446 0.992573C15.9826 0.965182 16.8087 0.960136 16.8743 0.981761C16.9835 1.01852 16.913 1.34289 16.9321 1.44453C17.0279 1.46039 17.3254 1.40633 17.374 1.47769C17.4445 1.58149 17.3564 2.68362 17.3846 2.89627C17.3486 3.00799 17.0314 2.93591 16.9321 2.95537C16.9236 3.0361 16.9659 3.42319 16.8792 3.42319H15.5068C15.5033 3.42319 15.454 3.37273 15.454 3.36913V1.49787L15.4547 1.49859Z" fill="black"/>
</g>
<defs>
<clipPath id="clip0_226_5586">
<rect width="22" height="23" fill="white"/>
</clipPath>
</defs>
</svg>
