<svg width="20" height="20" viewBox="0 0 20 20" fill="none" xmlns="http://www.w3.org/2000/svg">
<g clip-path="url(#clip0_460_6781)">
<path d="M12.1108 18.0679C12.1425 18.1468 12.1975 18.2141 12.2685 18.2608C12.3395 18.3075 12.4231 18.3314 12.5081 18.3292C12.5931 18.3271 12.6754 18.2989 12.7439 18.2486C12.8124 18.1984 12.8639 18.1283 12.8915 18.0479L18.307 2.21788C18.3337 2.14406 18.3388 2.06416 18.3217 1.98755C18.3046 1.91095 18.2661 1.84078 18.2106 1.78528C18.1551 1.72978 18.0849 1.69123 18.0083 1.67415C17.9317 1.65707 17.8518 1.66216 17.778 1.68882L1.94795 7.10436C1.86755 7.13194 1.7975 7.18344 1.74722 7.25197C1.69693 7.3205 1.66882 7.40278 1.66664 7.48775C1.66446 7.57272 1.68833 7.65632 1.73504 7.72734C1.78175 7.79835 1.84907 7.85338 1.92795 7.88503L8.53491 10.5345C8.74378 10.6181 8.93354 10.7432 9.09277 10.9021C9.252 11.061 9.37739 11.2506 9.46139 11.4593L12.1108 18.0679Z" stroke="white" stroke-width="2.49948" stroke-linecap="round" stroke-linejoin="round"/>
<path d="M18.2078 1.78879L9.09302 10.9027" stroke="white" stroke-width="2.49948" stroke-linecap="round" stroke-linejoin="round"/>
</g>
<defs>
<clipPath id="clip0_460_6781">
<rect width="19.9958" height="19.9958" fill="white"/>
</clipPath>
</defs>
</svg>
