<svg width="13" height="14" viewBox="0 0 13 14" fill="none" xmlns="http://www.w3.org/2000/svg">
<g clip-path="url(#clip0_422_387)">
<path d="M6.47485 0.958084V1.51961H7.00317V2.64265H7.53247V3.7657H8.06079V4.88875H11.76V5.2198H11.2317V5.78133H10.7034V6.34285H10.175V6.90437H9.64575V7.4659H9.11743V11.0665H9.64575V12.5206H9.38208V11.9591H8.32446V11.3975H7.26782V10.835H5.41821V11.3975H4.3606V11.9591H3.30396V12.5206H3.03931V11.0665H3.56763V7.4659H3.03931V6.90437H2.51099V6.34285H1.98169V5.78133H1.45337V5.2198H0.925049V4.88875H4.62524V3.7657H5.15356V2.64265H5.68188V1.51961H6.21021V0.958084H6.47485Z" fill="#FFD100" stroke="black" stroke-width="0.79284"/>
</g>
<defs>
<clipPath id="clip0_422_387">
<rect width="12.6854" height="13.4783" fill="white"/>
</clipPath>
</defs>
</svg>
