<svg width="12" height="12" viewBox="0 0 12 12" fill="none" xmlns="http://www.w3.org/2000/svg">
<g clip-path="url(#clip0_35_1568)">
<path d="M9.99939 4.99969C9.99939 7.49604 7.23006 10.0959 6.30011 10.8988C6.21348 10.964 6.10803 10.9992 5.99963 10.9992C5.89124 10.9992 5.78578 10.964 5.69915 10.8988C4.76921 10.0959 1.99988 7.49604 1.99988 4.99969C1.99988 3.93889 2.42128 2.92154 3.17138 2.17144C3.92148 1.42134 4.93883 0.999939 5.99963 0.999939C7.06043 0.999939 8.07779 1.42134 8.82789 2.17144C9.57799 2.92154 9.99939 3.93889 9.99939 4.99969Z" stroke="#7CB342" stroke-width="0.999939" stroke-linecap="round" stroke-linejoin="round"/>
<path d="M5.99963 6.49957C6.82801 6.49957 7.49954 5.82804 7.49954 4.99966C7.49954 4.17129 6.82801 3.49976 5.99963 3.49976C5.17125 3.49976 4.49972 4.17129 4.49972 4.99966C4.49972 5.82804 5.17125 6.49957 5.99963 6.49957Z" stroke="#7CB342" stroke-width="0.999939" stroke-linecap="round" stroke-linejoin="round"/>
</g>
<defs>
<clipPath id="clip0_35_1568">
<rect width="11.9993" height="11.9993" fill="white"/>
</clipPath>
</defs>
</svg>
