<svg width="12" height="12" viewBox="0 0 12 12" fill="none" xmlns="http://www.w3.org/2000/svg">
<g clip-path="url(#clip0_35_2408)">
<path d="M9.99927 4.99969C9.99927 7.49604 7.22994 10.0959 6.29999 10.8988C6.21336 10.964 6.1079 10.9992 5.99951 10.9992C5.89112 10.9992 5.78566 10.964 5.69903 10.8988C4.76909 10.0959 1.99976 7.49604 1.99976 4.99969C1.99976 3.93889 2.42116 2.92154 3.17126 2.17144C3.92136 1.42134 4.93871 0.999939 5.99951 0.999939C7.06031 0.999939 8.07767 1.42134 8.82776 2.17144C9.57786 2.92154 9.99927 3.93889 9.99927 4.99969Z" stroke="#7CB342" stroke-width="0.999939" stroke-linecap="round" stroke-linejoin="round"/>
<path d="M5.99966 6.49957C6.82804 6.49957 7.49957 5.82804 7.49957 4.99966C7.49957 4.17129 6.82804 3.49976 5.99966 3.49976C5.17129 3.49976 4.49976 4.17129 4.49976 4.99966C4.49976 5.82804 5.17129 6.49957 5.99966 6.49957Z" stroke="#7CB342" stroke-width="0.999939" stroke-linecap="round" stroke-linejoin="round"/>
</g>
<defs>
<clipPath id="clip0_35_2408">
<rect width="11.9993" height="11.9993" fill="white"/>
</clipPath>
</defs>
</svg>
