<svg width="45" height="47" viewBox="0 0 45 47" fill="none" xmlns="http://www.w3.org/2000/svg">
<path d="M15 3.91666H11.25V5.87499H9.375V7.83333H7.5V9.79166H5.625V11.75H3.75V15.6667H1.875V31.3333H3.75V35.25H5.625V37.2083H7.5V39.1667H9.375V41.125H11.25V43.0833H15V45.0417H30V43.0833H33.75V41.125H35.625V39.1667H37.5V37.2083H39.375V35.25H41.25V31.3333H43.125V15.6667H41.25V11.75H39.375V9.79166H37.5V7.83333H35.625V5.87499H33.75V3.91666H30V1.95833H15V3.91666ZM16.875 21.5417H35.625V25.4583H16.875V27.4167H18.75V29.375H20.625V31.3333H22.5V33.2917H24.375V35.25H22.5V37.2083H20.625V35.25H18.75V33.2917H16.875V31.3333H15V29.375H13.125V27.4167H11.25V25.4583H9.375V21.5417H11.25V19.5833H13.125V17.625H15V15.6667H16.875V13.7083H18.75V11.75H20.625V9.79166H22.5V11.75H24.375V13.7083H22.5V15.6667H20.625V17.625H18.75V19.5833H16.875V21.5417Z" fill="#4A5565"/>
</svg>
